<svg width="180" height="179" viewBox="0 0 180 179" fill="none" xmlns="http://www.w3.org/2000/svg">
<mask id="mask0_18_106" style="mask-type:alpha" maskUnits="userSpaceOnUse" x="0" y="0" width="180" height="179">
<rect width="180" height="179" fill="#D9D9D9"/>
</mask>
<g mask="url(#mask0_18_106)">
<path d="M125.033 116.015L129.024 89.9999H104.063V73.1173C104.063 65.9999 107.549 59.0626 118.729 59.0626H130.079V36.9132C130.079 36.9132 119.779 35.1559 109.932 35.1559C89.3748 35.1559 75.9374 47.616 75.9374 70.172V89.9999H53.0854V116.015H75.9374V178.905C80.5201 179.625 85.2161 180 90.0001 180C94.7841 180 99.4801 179.625 104.063 178.905V116.015H125.033" fill="white"/>
<path d="M180 90C180 40.2933 139.705 6.59458e-06 90.0001 6.59458e-06C40.2948 6.59458e-06 0 40.2933 0 90C0 134.921 32.9121 172.155 75.9375 178.905V116.015H53.0855V90H75.9375V70.172C75.9375 47.616 89.3748 35.156 109.932 35.156C119.779 35.156 130.079 36.9133 130.079 36.9133V59.0626H118.729C107.549 59.0626 104.063 66 104.063 73.1173V90H129.024L125.033 116.015H104.063V178.905C147.088 172.155 180 134.921 180 90" fill="#010201"/>
</g>
</svg>
