<svg xmlns="http://www.w3.org/2000/svg" version="1.1" xmlns:xlink="http://www.w3.org/1999/xlink" xmlns:svgjs="http://svgjs.com/svgjs" width="1440" height="560" preserveAspectRatio="none" viewBox="0 0 1440 560"><g mask="url(&quot;#SvgjsMask1500&quot;)" fill="none"><use xlink:href="#SvgjsG1506" transform="translate(0, 0)" fill="rgba(240, 240, 240, 1)"></use><use xlink:href="#SvgjsG1506" transform="translate(621, 0)" fill="rgba(240, 240, 240, 1)"></use><use xlink:href="#SvgjsG1506" transform="translate(1242, 0)" fill="rgba(240, 240, 240, 1)"></use></g><defs><mask id="SvgjsMask1500"><rect width="1440" height="560" fill="#ffffff"></rect></mask><g id="SvgjsG1505"><path d="M6.498 9.304L12.139 3.663l1.565 1.566-5.641 5.641z"></path><path d="M6.8 0.457h2.541v8.028H6.8z"></path><path d="M8.072 10.876L2.429 5.238l1.563-1.566L9.636 9.313zM1.2 13.277h13.733v2.266H1.2z"></path><path d="M0.733 9.143h2.267v6.4h-2.267z m12.267 0h2.267v6.4h-2.267z"></path></g><g id="SvgjsG1504"><path d="M3.474 10.969C3.474 7.665 8.077 0.361 8.077 0.361s4.602 7.305 4.602 10.608c0 2.247-1.506 4.771-4.602 4.771-3.095 0-4.603-2.524-4.603-4.771z" fill-rule="evenodd"></path></g><g id="SvgjsG1503"><path d="M7.713 15.485C3.459 15.485 0 12.025 0 7.768 0 3.513 3.459 0.051 7.713 0.051S15.432 3.513 15.432 7.768c0 4.257-3.465 7.716-7.719 7.717z m0-1.91c3.201 0 5.81-2.604 5.81-5.809 0-3.199-2.61-5.807-5.81-5.807-3.202 0-5.804 2.609-5.804 5.807-0.001 3.206 2.602 5.809 5.804 5.809z"></path><path d="M7.753 8.787a0.574 0.574 0 0 1-0.554-0.042 0.578 0.578 0 0 1-0.259-0.399L6.931 3.862a0.58 0.58 0 0 1 1.162 0v3.478l2.975-1.4a0.578 0.578 0 0 1 0.773 0.275c0.138 0.292 0.011 0.637-0.276 0.774l-3.81 1.798z"></path></g><g id="SvgjsG1501"><path d="M2.524 8.637H0.014V7.308h2.51v1.329zM3.656 4.576L1.884 2.804l0.935-0.935 1.772 1.772-0.935 0.935z m0 6.817l0.935 0.935-1.772 1.773-0.934-0.936 1.771-1.772z m4.997-8.884h-1.33V-0.002h1.33v2.511z m-1.33 10.952h1.33v2.51h-1.33v-2.509zM12.344 4.576l-0.96-0.935 1.796-1.772 0.935 0.935-1.772 1.772z m0 6.792l1.771 1.797-0.935 0.936-1.771-1.774 0.936-0.96z m3.643-4.06v1.329h-2.51V7.308h2.509z"></path><path d="M3.702 7.984a4.184 4.184 0 1 0 8.368 0 4.184 4.184 0 1 0-8.368 0"></path></g><g id="SvgjsG1502"><path d="M15.233 9.431c0.295 0 0.569-0.239 0.61-0.532 0 0 0.056-0.411 0.056-0.899s-0.056-0.899-0.056-0.899c-0.041-0.292-0.315-0.531-0.61-0.53h-1.524c-0.295 0-0.602-0.188-0.681-0.418s-0.188-0.967 0.021-1.176l1.078-1.077c0.209-0.209 0.225-0.565 0.036-0.792l-1.268-1.268c-0.227-0.189-0.583-0.173-0.792 0.036l-1.078 1.077c-0.208 0.209-0.556 0.293-0.772 0.187s-0.822-0.552-0.821-0.847V0.767c0-0.295-0.239-0.569-0.531-0.61 0 0-0.411-0.057-0.9-0.056s-0.899 0.057-0.899 0.056c-0.293 0.04-0.532 0.315-0.532 0.61v1.524c0 0.295-0.188 0.601-0.418 0.681s-0.967 0.188-1.176-0.021l-1.078-1.078C3.689 1.665 3.333 1.649 3.107 1.837l-1.268 1.268c-0.189 0.227-0.173 0.583 0.036 0.792l1.077 1.078c0.209 0.209 0.293 0.556 0.187 0.772s-0.552 0.822-0.847 0.822H0.767c-0.295 0-0.569 0.239-0.61 0.531 0 0-0.057 0.411-0.056 0.899s0.057 0.899 0.056 0.9c0.04 0.293 0.315 0.532 0.61 0.532h1.525c0.295 0 0.601 0.188 0.681 0.417 0.079 0.23 0.188 0.967-0.02 1.176l-1.078 1.077C1.667 12.311 1.651 12.667 1.84 12.893l1.267 1.268c0.227 0.189 0.583 0.173 0.792-0.036l1.077-1.077c0.209-0.208 0.556-0.292 0.772-0.187s0.821 0.553 0.822 0.848v1.524c0 0.295 0.239 0.569 0.532 0.61 0 0 0.411 0.057 0.899 0.057s0.899-0.056 0.899-0.057c0.293-0.04 0.531-0.315 0.532-0.609v-1.524c0-0.295 0.188-0.602 0.418-0.681 0.23-0.079 0.967-0.188 1.176 0.021l1.077 1.077c0.209 0.209 0.565 0.225 0.792 0.036l1.268-1.267c0.189-0.227 0.173-0.583-0.036-0.792l-1.078-1.077c-0.209-0.209-0.293-0.557-0.186-0.773 0.106-0.216 0.552-0.822 0.847-0.822h1.525zM8 10.892c-1.597 0-2.891-1.294-2.891-2.892 0-1.596 1.295-2.891 2.891-2.891S10.892 6.404 10.892 8 9.597 10.892 8 10.892z"></path></g><g id="SvgjsG1506"><use xlink:href="#SvgjsG1501" transform="translate(0, 0) scale(2.3)" fill="rgba(240, 240, 240, 1)"></use><use xlink:href="#SvgjsG1502" transform="translate(0, 62.099999999999994) scale(2.3)" fill="rgba(240, 240, 240, 1)"></use><use xlink:href="#SvgjsG1502" transform="translate(0, 124.19999999999999) scale(2.3)" fill="rgba(240, 240, 240, 1)"></use><use xlink:href="#SvgjsG1501" transform="translate(0, 186.29999999999998) scale(2.3)" fill="rgba(240, 240, 240, 1)"></use><use xlink:href="#SvgjsG1503" transform="translate(0, 248.39999999999998) scale(2.3)" fill="rgba(240, 240, 240, 1)"></use><use xlink:href="#SvgjsG1501" transform="translate(0, 310.5) scale(2.3)" fill="rgba(240, 240, 240, 1)"></use><use xlink:href="#SvgjsG1504" transform="translate(0, 372.59999999999997) scale(2.3)" fill="rgba(240, 240, 240, 1)"></use><use xlink:href="#SvgjsG1502" transform="translate(0, 434.69999999999993) scale(2.3)" fill="rgba(240, 240, 240, 1)"></use><use xlink:href="#SvgjsG1502" transform="translate(0, 496.79999999999995) scale(2.3)" fill="rgba(240, 240, 240, 1)"></use><use xlink:href="#SvgjsG1503" transform="translate(0, 558.9) scale(2.3)" fill="rgba(240, 240, 240, 1)"></use><use xlink:href="#SvgjsG1504" transform="translate(62.099999999999994, 0) scale(2.3)" fill="rgba(240, 240, 240, 1)"></use><use xlink:href="#SvgjsG1501" transform="translate(62.099999999999994, 62.099999999999994) scale(2.3)" fill="rgba(240, 240, 240, 1)"></use><use xlink:href="#SvgjsG1502" transform="translate(62.099999999999994, 124.19999999999999) scale(2.3)" fill="rgba(240, 240, 240, 1)"></use><use xlink:href="#SvgjsG1503" transform="translate(62.099999999999994, 186.29999999999998) scale(2.3)" fill="rgba(240, 240, 240, 1)"></use><use xlink:href="#SvgjsG1504" transform="translate(62.099999999999994, 248.39999999999998) scale(2.3)" fill="rgba(240, 240, 240, 1)"></use><use xlink:href="#SvgjsG1504" transform="translate(62.099999999999994, 310.5) scale(2.3)" fill="rgba(240, 240, 240, 1)"></use><use xlink:href="#SvgjsG1503" transform="translate(62.099999999999994, 372.59999999999997) scale(2.3)" fill="rgba(240, 240, 240, 1)"></use><use xlink:href="#SvgjsG1501" transform="translate(62.099999999999994, 434.69999999999993) scale(2.3)" fill="rgba(240, 240, 240, 1)"></use><use xlink:href="#SvgjsG1503" transform="translate(62.099999999999994, 496.79999999999995) scale(2.3)" fill="rgba(240, 240, 240, 1)"></use><use xlink:href="#SvgjsG1505" transform="translate(62.099999999999994, 558.9) scale(2.3)" fill="rgba(240, 240, 240, 1)"></use><use xlink:href="#SvgjsG1501" transform="translate(124.19999999999999, 0) scale(2.3)" fill="rgba(240, 240, 240, 1)"></use><use xlink:href="#SvgjsG1505" transform="translate(124.19999999999999, 62.099999999999994) scale(2.3)" fill="rgba(240, 240, 240, 1)"></use><use xlink:href="#SvgjsG1501" transform="translate(124.19999999999999, 124.19999999999999) scale(2.3)" fill="rgba(240, 240, 240, 1)"></use><use xlink:href="#SvgjsG1502" transform="translate(124.19999999999999, 186.29999999999998) scale(2.3)" fill="rgba(240, 240, 240, 1)"></use><use xlink:href="#SvgjsG1505" transform="translate(124.19999999999999, 248.39999999999998) scale(2.3)" fill="rgba(240, 240, 240, 1)"></use><use xlink:href="#SvgjsG1503" transform="translate(124.19999999999999, 310.5) scale(2.3)" fill="rgba(240, 240, 240, 1)"></use><use xlink:href="#SvgjsG1501" transform="translate(124.19999999999999, 372.59999999999997) scale(2.3)" fill="rgba(240, 240, 240, 1)"></use><use xlink:href="#SvgjsG1503" transform="translate(124.19999999999999, 434.69999999999993) scale(2.3)" fill="rgba(240, 240, 240, 1)"></use><use xlink:href="#SvgjsG1505" transform="translate(124.19999999999999, 496.79999999999995) scale(2.3)" fill="rgba(240, 240, 240, 1)"></use><use xlink:href="#SvgjsG1505" transform="translate(124.19999999999999, 558.9) scale(2.3)" fill="rgba(240, 240, 240, 1)"></use><use xlink:href="#SvgjsG1503" transform="translate(186.29999999999998, 0) scale(2.3)" fill="rgba(240, 240, 240, 1)"></use><use xlink:href="#SvgjsG1503" transform="translate(186.29999999999998, 62.099999999999994) scale(2.3)" fill="rgba(240, 240, 240, 1)"></use><use xlink:href="#SvgjsG1503" transform="translate(186.29999999999998, 124.19999999999999) scale(2.3)" fill="rgba(240, 240, 240, 1)"></use><use xlink:href="#SvgjsG1502" transform="translate(186.29999999999998, 186.29999999999998) scale(2.3)" fill="rgba(240, 240, 240, 1)"></use><use xlink:href="#SvgjsG1501" transform="translate(186.29999999999998, 248.39999999999998) scale(2.3)" fill="rgba(240, 240, 240, 1)"></use><use xlink:href="#SvgjsG1504" transform="translate(186.29999999999998, 310.5) scale(2.3)" fill="rgba(240, 240, 240, 1)"></use><use xlink:href="#SvgjsG1504" transform="translate(186.29999999999998, 372.59999999999997) scale(2.3)" fill="rgba(240, 240, 240, 1)"></use><use xlink:href="#SvgjsG1502" transform="translate(186.29999999999998, 434.69999999999993) scale(2.3)" fill="rgba(240, 240, 240, 1)"></use><use xlink:href="#SvgjsG1502" transform="translate(186.29999999999998, 496.79999999999995) scale(2.3)" fill="rgba(240, 240, 240, 1)"></use><use xlink:href="#SvgjsG1501" transform="translate(186.29999999999998, 558.9) scale(2.3)" fill="rgba(240, 240, 240, 1)"></use><use xlink:href="#SvgjsG1505" transform="translate(248.39999999999998, 0) scale(2.3)" fill="rgba(240, 240, 240, 1)"></use><use xlink:href="#SvgjsG1505" transform="translate(248.39999999999998, 62.099999999999994) scale(2.3)" fill="rgba(240, 240, 240, 1)"></use><use xlink:href="#SvgjsG1502" transform="translate(248.39999999999998, 124.19999999999999) scale(2.3)" fill="rgba(240, 240, 240, 1)"></use><use xlink:href="#SvgjsG1502" transform="translate(248.39999999999998, 186.29999999999998) scale(2.3)" fill="rgba(240, 240, 240, 1)"></use><use xlink:href="#SvgjsG1501" transform="translate(248.39999999999998, 248.39999999999998) scale(2.3)" fill="rgba(240, 240, 240, 1)"></use><use xlink:href="#SvgjsG1502" transform="translate(248.39999999999998, 310.5) scale(2.3)" fill="rgba(240, 240, 240, 1)"></use><use xlink:href="#SvgjsG1505" transform="translate(248.39999999999998, 372.59999999999997) scale(2.3)" fill="rgba(240, 240, 240, 1)"></use><use xlink:href="#SvgjsG1505" transform="translate(248.39999999999998, 434.69999999999993) scale(2.3)" fill="rgba(240, 240, 240, 1)"></use><use xlink:href="#SvgjsG1502" transform="translate(248.39999999999998, 496.79999999999995) scale(2.3)" fill="rgba(240, 240, 240, 1)"></use><use xlink:href="#SvgjsG1501" transform="translate(248.39999999999998, 558.9) scale(2.3)" fill="rgba(240, 240, 240, 1)"></use><use xlink:href="#SvgjsG1501" transform="translate(310.5, 0) scale(2.3)" fill="rgba(240, 240, 240, 1)"></use><use xlink:href="#SvgjsG1501" transform="translate(310.5, 62.099999999999994) scale(2.3)" fill="rgba(240, 240, 240, 1)"></use><use xlink:href="#SvgjsG1505" transform="translate(310.5, 124.19999999999999) scale(2.3)" fill="rgba(240, 240, 240, 1)"></use><use xlink:href="#SvgjsG1501" transform="translate(310.5, 186.29999999999998) scale(2.3)" fill="rgba(240, 240, 240, 1)"></use><use xlink:href="#SvgjsG1503" transform="translate(310.5, 248.39999999999998) scale(2.3)" fill="rgba(240, 240, 240, 1)"></use><use xlink:href="#SvgjsG1503" transform="translate(310.5, 310.5) scale(2.3)" fill="rgba(240, 240, 240, 1)"></use><use xlink:href="#SvgjsG1501" transform="translate(310.5, 372.59999999999997) scale(2.3)" fill="rgba(240, 240, 240, 1)"></use><use xlink:href="#SvgjsG1502" transform="translate(310.5, 434.69999999999993) scale(2.3)" fill="rgba(240, 240, 240, 1)"></use><use xlink:href="#SvgjsG1504" transform="translate(310.5, 496.79999999999995) scale(2.3)" fill="rgba(240, 240, 240, 1)"></use><use xlink:href="#SvgjsG1502" transform="translate(310.5, 558.9) scale(2.3)" fill="rgba(240, 240, 240, 1)"></use><use xlink:href="#SvgjsG1504" transform="translate(372.59999999999997, 0) scale(2.3)" fill="rgba(240, 240, 240, 1)"></use><use xlink:href="#SvgjsG1503" transform="translate(372.59999999999997, 62.099999999999994) scale(2.3)" fill="rgba(240, 240, 240, 1)"></use><use xlink:href="#SvgjsG1505" transform="translate(372.59999999999997, 124.19999999999999) scale(2.3)" fill="rgba(240, 240, 240, 1)"></use><use xlink:href="#SvgjsG1505" transform="translate(372.59999999999997, 186.29999999999998) scale(2.3)" fill="rgba(240, 240, 240, 1)"></use><use xlink:href="#SvgjsG1502" transform="translate(372.59999999999997, 248.39999999999998) scale(2.3)" fill="rgba(240, 240, 240, 1)"></use><use xlink:href="#SvgjsG1502" transform="translate(372.59999999999997, 310.5) scale(2.3)" fill="rgba(240, 240, 240, 1)"></use><use xlink:href="#SvgjsG1505" transform="translate(372.59999999999997, 372.59999999999997) scale(2.3)" fill="rgba(240, 240, 240, 1)"></use><use xlink:href="#SvgjsG1502" transform="translate(372.59999999999997, 434.69999999999993) scale(2.3)" fill="rgba(240, 240, 240, 1)"></use><use xlink:href="#SvgjsG1504" transform="translate(372.59999999999997, 496.79999999999995) scale(2.3)" fill="rgba(240, 240, 240, 1)"></use><use xlink:href="#SvgjsG1504" transform="translate(372.59999999999997, 558.9) scale(2.3)" fill="rgba(240, 240, 240, 1)"></use><use xlink:href="#SvgjsG1503" transform="translate(434.69999999999993, 0) scale(2.3)" fill="rgba(240, 240, 240, 1)"></use><use xlink:href="#SvgjsG1504" transform="translate(434.69999999999993, 62.099999999999994) scale(2.3)" fill="rgba(240, 240, 240, 1)"></use><use xlink:href="#SvgjsG1503" transform="translate(434.69999999999993, 124.19999999999999) scale(2.3)" fill="rgba(240, 240, 240, 1)"></use><use xlink:href="#SvgjsG1503" transform="translate(434.69999999999993, 186.29999999999998) scale(2.3)" fill="rgba(240, 240, 240, 1)"></use><use xlink:href="#SvgjsG1502" transform="translate(434.69999999999993, 248.39999999999998) scale(2.3)" fill="rgba(240, 240, 240, 1)"></use><use xlink:href="#SvgjsG1505" transform="translate(434.69999999999993, 310.5) scale(2.3)" fill="rgba(240, 240, 240, 1)"></use><use xlink:href="#SvgjsG1502" transform="translate(434.69999999999993, 372.59999999999997) scale(2.3)" fill="rgba(240, 240, 240, 1)"></use><use xlink:href="#SvgjsG1502" transform="translate(434.69999999999993, 434.69999999999993) scale(2.3)" fill="rgba(240, 240, 240, 1)"></use><use xlink:href="#SvgjsG1501" transform="translate(434.69999999999993, 496.79999999999995) scale(2.3)" fill="rgba(240, 240, 240, 1)"></use><use xlink:href="#SvgjsG1502" transform="translate(434.69999999999993, 558.9) scale(2.3)" fill="rgba(240, 240, 240, 1)"></use><use xlink:href="#SvgjsG1504" transform="translate(496.79999999999995, 0) scale(2.3)" fill="rgba(240, 240, 240, 1)"></use><use xlink:href="#SvgjsG1504" transform="translate(496.79999999999995, 62.099999999999994) scale(2.3)" fill="rgba(240, 240, 240, 1)"></use><use xlink:href="#SvgjsG1503" transform="translate(496.79999999999995, 124.19999999999999) scale(2.3)" fill="rgba(240, 240, 240, 1)"></use><use xlink:href="#SvgjsG1505" transform="translate(496.79999999999995, 186.29999999999998) scale(2.3)" fill="rgba(240, 240, 240, 1)"></use><use xlink:href="#SvgjsG1503" transform="translate(496.79999999999995, 248.39999999999998) scale(2.3)" fill="rgba(240, 240, 240, 1)"></use><use xlink:href="#SvgjsG1505" transform="translate(496.79999999999995, 310.5) scale(2.3)" fill="rgba(240, 240, 240, 1)"></use><use xlink:href="#SvgjsG1504" transform="translate(496.79999999999995, 372.59999999999997) scale(2.3)" fill="rgba(240, 240, 240, 1)"></use><use xlink:href="#SvgjsG1505" transform="translate(496.79999999999995, 434.69999999999993) scale(2.3)" fill="rgba(240, 240, 240, 1)"></use><use xlink:href="#SvgjsG1502" transform="translate(496.79999999999995, 496.79999999999995) scale(2.3)" fill="rgba(240, 240, 240, 1)"></use><use xlink:href="#SvgjsG1505" transform="translate(496.79999999999995, 558.9) scale(2.3)" fill="rgba(240, 240, 240, 1)"></use><use xlink:href="#SvgjsG1502" transform="translate(558.9, 0) scale(2.3)" fill="rgba(240, 240, 240, 1)"></use><use xlink:href="#SvgjsG1504" transform="translate(558.9, 62.099999999999994) scale(2.3)" fill="rgba(240, 240, 240, 1)"></use><use xlink:href="#SvgjsG1503" transform="translate(558.9, 124.19999999999999) scale(2.3)" fill="rgba(240, 240, 240, 1)"></use><use xlink:href="#SvgjsG1504" transform="translate(558.9, 186.29999999999998) scale(2.3)" fill="rgba(240, 240, 240, 1)"></use><use xlink:href="#SvgjsG1503" transform="translate(558.9, 248.39999999999998) scale(2.3)" fill="rgba(240, 240, 240, 1)"></use><use xlink:href="#SvgjsG1505" transform="translate(558.9, 310.5) scale(2.3)" fill="rgba(240, 240, 240, 1)"></use><use xlink:href="#SvgjsG1505" transform="translate(558.9, 372.59999999999997) scale(2.3)" fill="rgba(240, 240, 240, 1)"></use><use xlink:href="#SvgjsG1503" transform="translate(558.9, 434.69999999999993) scale(2.3)" fill="rgba(240, 240, 240, 1)"></use><use xlink:href="#SvgjsG1505" transform="translate(558.9, 496.79999999999995) scale(2.3)" fill="rgba(240, 240, 240, 1)"></use><use xlink:href="#SvgjsG1502" transform="translate(558.9, 558.9) scale(2.3)" fill="rgba(240, 240, 240, 1)"></use></g></defs></svg>