<svg width="180" height="180" viewBox="0 0 180 180" fill="none" xmlns="http://www.w3.org/2000/svg">
<mask id="mask0_18_109" style="mask-type:alpha" maskUnits="userSpaceOnUse" x="0" y="0" width="180" height="180">
<rect width="180" height="180" fill="#D9D9D9"/>
</mask>
<g mask="url(#mask0_18_109)">
<path d="M90 -9.38773e-06C139.705 -9.38773e-06 180 40.2933 180 90C180 139.705 139.705 180 90 180C40.2947 180 0 139.705 0 90C0 40.2933 40.2947 -9.38773e-06 90 -9.38773e-06Z" fill="#010201"/>
<path d="M127.048 59.7507C127.048 63.5067 124.004 66.5507 120.249 66.5507C116.493 66.5507 113.449 63.5067 113.449 59.7507C113.449 55.9947 116.493 52.9507 120.249 52.9507C124.004 52.9507 127.048 55.9947 127.048 59.7507Z" fill="white"/>
<path d="M89.9999 108.889C79.5679 108.889 71.1106 100.432 71.1106 90.0001C71.1106 79.5681 79.5679 71.1107 89.9999 71.1107C100.432 71.1107 108.889 79.5681 108.889 90.0001C108.889 100.432 100.432 108.889 89.9999 108.889ZM89.9999 60.9014C73.9293 60.9014 60.9012 73.9294 60.9012 90.0001C60.9012 106.071 73.9293 119.099 89.9999 119.099C106.071 119.099 119.099 106.071 119.099 90.0001C119.099 73.9294 106.071 60.9014 89.9999 60.9014Z" fill="white"/>
<path d="M89.9999 33.3333C74.6092 33.3333 72.6799 33.3986 66.6359 33.6746C60.6053 33.9492 56.4852 34.9066 52.8812 36.3079C49.1546 37.7559 45.9946 39.6933 42.8439 42.844C39.6933 45.9946 37.7559 49.1547 36.3079 52.8813C34.9079 56.4853 33.9493 60.604 33.6746 66.636C33.3986 72.6814 33.3333 74.6093 33.3333 90C33.3333 105.389 33.3986 107.32 33.6746 113.364C33.9493 119.395 34.9079 123.515 36.3079 127.119C37.7559 130.845 39.6933 134.005 42.8439 137.155C45.9946 140.305 49.1546 142.243 52.8812 143.692C56.4852 145.092 60.6053 146.051 66.6359 146.325C72.6799 146.601 74.6092 146.667 89.9999 146.667C105.389 146.667 107.319 146.601 113.363 146.325C119.395 146.051 123.515 145.092 127.119 143.692C130.845 142.243 134.005 140.305 137.156 137.155C140.305 134.005 142.244 130.845 143.692 127.119C145.092 123.515 146.051 119.395 146.325 113.364C146.601 107.32 146.667 105.389 146.667 90C146.667 74.6106 146.601 72.6814 146.325 66.636C146.051 60.604 145.092 56.4853 143.692 52.8813C142.244 49.1547 140.305 45.9946 137.156 42.844C134.005 39.6933 130.845 37.7559 127.119 36.3079C123.515 34.9066 119.395 33.9492 113.363 33.6746C107.319 33.3986 105.389 33.3333 89.9999 33.3333ZM89.9999 43.544C105.131 43.544 106.923 43.6013 112.899 43.8733C118.423 44.1266 121.423 45.0494 123.42 45.8254C126.065 46.8534 127.953 48.0814 129.936 50.064C131.919 52.0467 133.147 53.9346 134.175 56.5786C134.951 58.5759 135.873 61.5759 136.127 67.1013C136.399 73.0773 136.456 74.8693 136.456 90C136.456 105.131 136.399 106.923 136.127 112.899C135.873 118.423 134.951 121.424 134.175 123.42C133.147 126.065 131.919 127.953 129.936 129.936C127.953 131.919 126.065 133.147 123.42 134.175C121.423 134.951 118.423 135.875 112.899 136.125C106.923 136.399 105.132 136.456 89.9999 136.456C74.8679 136.456 73.0759 136.399 67.1012 136.125C61.5772 135.875 58.5759 134.951 56.5799 134.175C53.9346 133.147 52.0466 131.919 50.0639 129.936C48.0812 127.953 46.8532 126.065 45.8252 123.42C45.0492 121.424 44.1266 118.423 43.8732 112.899C43.6012 106.923 43.5439 105.131 43.5439 90C43.5439 74.8693 43.6012 73.0773 43.8732 67.1013C44.1266 61.5759 45.0492 58.5759 45.8252 56.5786C46.8532 53.9346 48.0799 52.0467 50.0639 50.064C52.0466 48.0814 53.9346 46.8534 56.5799 45.8254C58.5759 45.0494 61.5772 44.1266 67.1012 43.8733C73.0772 43.6013 74.8692 43.544 89.9999 43.544Z" fill="white"/>
</g>
</svg>
