<svg width="3220" height="2066" viewBox="0 0 3220 2066" fill="none" xmlns="http://www.w3.org/2000/svg">
<mask id="mask0_15_249" style="mask-type:alpha" maskUnits="userSpaceOnUse" x="0" y="0" width="3220" height="2066">
<rect width="3220" height="2066" fill="#D9D9D9"/>
</mask>
<g mask="url(#mask0_15_249)">
<path d="M3163.88 1496.67C3167.66 1510.23 3170.62 1524.09 3172.76 1538.16L3178.04 1537.36C3175.86 1523.08 3172.83 1509 3169 1495.24L3163.88 1496.67ZM3176.6 1580.41C3176.69 1583.79 3176.76 1587.16 3176.76 1590.53C3176.76 1601.25 3176.24 1612.01 3175.23 1622.8L3180.54 1623.31C3181.57 1612.35 3182.09 1601.41 3182.09 1590.53C3182.09 1587.11 3182.04 1583.68 3181.93 1580.25L3176.6 1580.41ZM3168.58 1664.68C3165.54 1678.31 3161.61 1691.89 3156.73 1705.4L3161.77 1707.2C3166.69 1693.49 3170.69 1679.69 3173.79 1665.85L3168.58 1664.68M3139.94 1744.32C3133.67 1756.68 3126.56 1768.91 3118.56 1780.93L3122.99 1783.88C3131.11 1771.69 3138.34 1759.28 3144.71 1746.73L3139.94 1744.32M3093.09 1814.85C3084.21 1825.42 3074.55 1835.76 3064.1 1845.87L3067.8 1849.71C3078.39 1839.48 3088.17 1828.99 3097.16 1818.29L3093.09 1814.85ZM3032.2 1873.88C3021.43 1882.48 3009.99 1890.85 2997.87 1898.95L3000.84 1903.39C3013.07 1895.2 3024.64 1886.75 3035.52 1878.05L3032.2 1873.88ZM2961.61 1921.19C2949.59 1927.96 2937 1934.5 2923.85 1940.77L2926.14 1945.59C2939.4 1939.27 2952.1 1932.67 2964.24 1925.84L2961.61 1921.19ZM2884.87 1957.89C2872.03 1963.07 2858.73 1968.01 2844.92 1972.73L2846.66 1977.77C2860.55 1973.04 2873.94 1968.05 2886.85 1962.83L2884.87 1957.89ZM2804.28 1985.49C2790.95 1989.34 2777.22 1992.96 2763.06 1996.36L2764.29 2001.55C2778.52 1998.12 2792.35 1994.48 2805.74 1990.63L2804.28 1985.49ZM2721.38 2005.49C2707.73 2008.2 2693.75 2010.72 2679.39 2013.03L2680.24 2018.29C2694.65 2015.97 2708.72 2013.44 2722.41 2010.72L2721.38 2005.49ZM2637.17 2019.12C2623.35 2020.88 2609.19 2022.47 2594.75 2023.88L2595.27 2029.19C2609.77 2027.77 2623.96 2026.19 2637.82 2024.41L2637.17 2019.12M2552.2 2027.4C2538.26 2028.36 2524.06 2029.16 2509.58 2029.79L2509.81 2035.12C2524.35 2034.49 2538.6 2033.68 2552.58 2032.72L2552.2 2027.4M2466.89 2031.15C2454.19 2031.39 2441.29 2031.52 2428.18 2031.52C2426.86 2031.52 2425.51 2031.52 2424.16 2031.52V2036.85C2425.51 2036.85 2426.86 2036.85 2428.18 2036.85C2441.34 2036.85 2454.26 2036.72 2467.01 2036.47L2466.89 2031.15ZM2381.45 2030.99C2367.45 2030.68 2353.19 2030.23 2338.74 2029.63L2338.52 2034.96C2353.01 2035.56 2367.27 2036.01 2381.34 2036.32L2381.45 2030.99ZM2296.05 2027.48C2282.05 2026.65 2267.84 2025.69 2253.43 2024.59L2253.03 2029.91C2267.46 2031.01 2281.71 2031.97 2295.74 2032.8L2296.05 2027.48ZM2210.83 2021.01C2196.83 2019.73 2182.67 2018.33 2168.3 2016.8L2167.74 2022.11C2182.11 2023.64 2196.34 2025.04 2210.34 2026.33L2210.83 2021.01M2125.84 2011.97C2111.86 2010.28 2097.72 2008.48 2083.45 2006.56L2082.73 2011.85C2097.05 2013.77 2111.19 2015.57 2125.19 2017.27L2125.84 2011.97M2041.1 2000.61C2027.16 1998.57 2013.09 1996.41 1998.83 1994.15L1998 1999.41C2012.25 2001.68 2026.37 2003.84 2040.33 2005.89L2041.1 2000.61M1956.66 1987.2C1942.77 1984.83 1928.72 1982.36 1914.56 1979.79L1913.59 1985.03C1927.8 1987.61 1941.85 1990.08 1955.76 1992.45L1956.66 1987.2M1872.52 1971.92C1858.68 1969.27 1844.7 1966.51 1830.58 1963.64L1829.52 1968.87C1843.64 1971.73 1857.64 1974.49 1871.51 1977.16L1872.52 1971.92M1788.72 1954.96C1774.92 1952.04 1760.98 1949.01 1746.93 1945.89L1745.77 1951.11C1759.85 1954.23 1773.77 1957.25 1787.6 1960.19L1788.72 1954.96M1705.22 1936.47C1691.46 1933.29 1677.58 1930.04 1663.6 1926.69L1662.36 1931.88C1676.36 1935.23 1690.25 1938.49 1704.02 1941.67L1705.22 1936.47M1622.05 1916.57C1608.34 1913.17 1594.52 1909.69 1580.58 1906.13L1579.26 1911.29C1593.21 1914.87 1607.04 1918.35 1620.77 1921.75L1622.05 1916.57ZM1539.2 1895.37C1535.2 1894.32 1531.18 1893.27 1527.17 1892.2C1517.32 1889.58 1507.5 1887.07 1497.73 1884.67L1496.45 1889.84C1506.2 1892.24 1515.98 1894.73 1525.8 1897.35C1529.81 1898.41 1533.82 1899.48 1537.84 1900.53L1539.2 1895.37M1455.98 1875C1441.92 1871.95 1427.92 1869.09 1413.98 1866.45L1413 1871.69C1426.88 1874.33 1440.82 1877.16 1454.85 1880.21L1455.98 1875M1371.74 1859.03C1357.53 1856.72 1343.38 1854.63 1329.33 1852.73L1328.61 1858.01C1342.62 1859.91 1356.72 1862 1370.89 1864.3L1371.74 1859.03ZM1286.76 1847.55C1272.45 1846 1258.21 1844.64 1244.08 1843.48L1243.64 1848.79C1257.73 1849.96 1271.92 1851.31 1286.18 1852.85L1286.76 1847.55M1201.3 1840.49C1186.93 1839.68 1172.65 1839.04 1158.48 1838.59L1158.3 1843.92C1172.44 1844.37 1186.66 1845 1201 1845.83L1201.3 1840.49M1115.61 1837.72C1110.62 1837.68 1105.65 1837.67 1100.69 1837.67C1091.33 1837.67 1082.02 1837.73 1072.77 1837.87L1072.85 1843.2C1082.08 1843.07 1091.36 1843 1100.69 1843C1105.64 1843 1110.6 1843.01 1115.57 1843.05L1115.61 1837.72M1029.94 1839C1015.56 1839.55 1001.29 1840.24 987.144 1841.07L987.463 1846.4C1001.57 1845.56 1015.8 1844.87 1030.14 1844.33L1029.94 1839M944.411 1844.04C930.052 1845.17 915.825 1846.45 901.744 1847.85L902.265 1853.16C916.317 1851.76 930.517 1850.49 944.839 1849.35L944.411 1844.04M859.157 1852.45C844.84 1854.13 830.674 1855.92 816.658 1857.8L817.366 1863.08C831.355 1861.2 845.49 1859.43 859.771 1857.75L859.157 1852.45M774.254 1863.8C759.98 1865.93 745.874 1868.15 731.941 1870.41L732.8 1875.68C746.71 1873.41 760.791 1871.2 775.041 1869.08L774.254 1863.8ZM689.717 1877.55C675.474 1880.03 661.425 1882.55 647.573 1885.1L648.537 1890.35C662.376 1887.8 676.409 1885.28 690.634 1882.8L689.717 1877.55M605.497 1892.97C591.256 1895.69 577.243 1898.4 563.465 1901.07L564.481 1906.31C578.257 1903.63 592.263 1900.92 606.495 1898.21L605.497 1892.97M521.457 1909.21C507.171 1911.97 493.164 1914.67 479.436 1917.24L480.423 1922.48C494.162 1919.91 508.18 1917.21 522.468 1914.46L521.457 1909.21ZM437.374 1924.93C422.971 1927.48 408.915 1929.85 395.221 1932L396.048 1937.27C409.785 1935.11 423.873 1932.73 438.3 1930.19L437.374 1924.93M352.942 1938.04C338.324 1939.89 324.178 1941.4 310.515 1942.51L310.942 1947.83C324.702 1946.71 338.927 1945.2 353.61 1943.33L352.942 1938.04ZM267.976 1944.57C266.038 1944.6 264.112 1944.6 262.199 1944.6C249.444 1944.6 237.213 1944.09 225.524 1943L225.027 1948.32C236.908 1949.43 249.3 1949.93 262.199 1949.93C264.134 1949.93 266.081 1949.93 268.039 1949.91L267.976 1944.57M183.814 1935.96C169.648 1932.31 156.534 1927.4 144.492 1921.07L142.01 1925.8C154.461 1932.33 167.969 1937.39 182.481 1941.13L183.814 1935.96ZM110.526 1896.63C100.848 1887.28 92.2075 1876.37 84.6231 1863.67L80.0441 1866.4C87.8533 1879.48 96.791 1890.79 106.821 1900.47L110.526 1896.63ZM66.9073 1825.37C62.0226 1811.91 57.592 1798.41 53.6064 1784.88L48.4902 1786.4C52.5095 1800.03 56.9716 1813.63 61.8945 1827.2L66.9073 1825.37M42.83 1743.65C39.6492 1729.74 36.9225 1715.79 34.6386 1701.84L29.3763 1702.7C31.6759 1716.76 34.4251 1730.81 37.6306 1744.84L42.83 1743.65ZM29.0571 1659.59C27.6296 1645.41 26.6451 1631.24 26.0921 1617.08L20.7623 1617.28C21.3198 1631.56 22.3133 1645.84 23.752 1660.12L29.0571 1659.59ZM25.71 1574.45C26.0089 1560.25 26.7282 1546.08 27.8589 1531.92L22.5426 1531.49C21.4029 1545.75 20.6769 1560.04 20.3779 1574.35L25.71 1574.45M32.4559 1489.61C34.3846 1475.58 36.709 1461.59 39.4132 1447.64L34.1778 1446.63C31.4556 1460.67 29.1155 1474.75 27.1733 1488.88L32.4559 1489.61ZM48.6251 1406.14C52.0622 1392.37 55.8656 1378.67 60.022 1365.06L54.9215 1363.5C50.7381 1377.2 46.9122 1390.99 43.4527 1404.84L48.6251 1406.14M73.4735 1324.59C78.2728 1311.24 83.4115 1297.99 88.8716 1284.81L83.9442 1282.78C78.4525 1296.02 73.2846 1309.36 68.4561 1322.77L73.4735 1324.59ZM106.111 1245.8C112.135 1232.96 118.465 1220.22 125.088 1207.59L120.365 1205.11C113.706 1217.8 107.34 1230.61 101.282 1243.54L106.111 1245.8ZM145.708 1170.23C152.825 1157.95 160.22 1145.8 167.879 1133.76L163.378 1130.9C155.682 1142.99 148.25 1155.22 141.093 1167.55L145.708 1170.23M191.45 1098.32C199.527 1086.68 207.853 1075.19 216.413 1063.83L212.154 1060.61C203.553 1072.03 195.186 1083.59 187.069 1095.28L191.45 1098.32M242.694 1030.29C251.656 1019.3 260.839 1008.46 270.233 997.77L266.227 994.25C256.79 1004.98 247.565 1015.88 238.56 1026.92L242.694 1030.29M298.968 966.27C308.733 955.95 318.695 945.798 328.849 935.824L325.109 932.019C314.912 942.04 304.904 952.236 295.095 962.601L298.968 966.27ZM359.821 906.462C370.323 896.859 380.998 887.445 391.842 878.22L388.387 874.158C377.496 883.423 366.771 892.883 356.222 902.528L359.821 906.462ZM424.868 851.13C436.047 842.291 447.381 833.655 458.859 825.23L455.703 820.932C444.174 829.393 432.79 838.067 421.562 846.944L424.868 851.13ZM493.776 800.563C505.58 792.541 517.516 784.74 529.578 777.172L526.744 772.656C514.627 780.258 502.635 788.092 490.779 796.151L493.776 800.563M566.233 755.113C578.607 747.971 591.099 741.077 603.694 734.435L601.206 729.716C588.552 736.39 576 743.318 563.567 750.491L566.233 755.113M641.931 715.199C654.791 709.042 667.746 703.146 680.784 697.526L678.673 692.63C665.57 698.277 652.552 704.202 639.627 710.391L641.931 715.199M720.309 681.429C733.625 676.322 747.011 671.502 760.461 666.982L758.761 661.926C745.242 666.471 731.784 671.315 718.4 676.45L720.309 681.429M801.188 654.265C814.889 650.313 828.64 646.676 842.431 643.365L841.185 638.177C827.316 641.51 813.487 645.168 799.709 649.142L801.188 654.265ZM884.118 634.367C898.118 631.689 912.145 629.354 926.185 627.367L925.437 622.086C911.318 624.085 897.199 626.434 883.118 629.129L884.118 634.367ZM968.637 622.45C982.837 621.171 997.037 620.261 1011.24 619.731L1011.04 614.401C996.745 614.936 982.45 615.851 968.158 617.139L968.637 622.45ZM1053.86 619.29C1068.09 619.533 1082.29 620.169 1096.45 621.207L1096.84 615.889C1082.58 614.839 1068.28 614.201 1053.96 613.958L1053.86 619.29ZM1138.85 625.555C1152.92 627.414 1166.95 629.687 1180.9 632.386L1181.92 627.149C1167.85 624.431 1153.72 622.138 1139.54 620.268L1138.85 625.555M1222.46 641.733C1236.17 645.26 1249.81 649.214 1263.36 653.606L1265 648.533C1251.35 644.105 1237.6 640.121 1223.78 636.567L1222.46 641.733ZM1303.42 667.991C1316.57 673.172 1329.61 678.79 1342.56 684.85L1344.82 680.019C1331.78 673.914 1318.62 668.252 1305.38 663.027L1303.42 667.991ZM1380.56 704.108C1392.93 710.858 1405.18 718.038 1417.32 725.659L1420.16 721.14C1407.93 713.466 1395.58 706.23 1383.12 699.426L1380.56 704.108M1452.72 749.383C1464.16 757.554 1475.48 766.137 1486.66 775.144L1490.01 770.99C1478.74 761.92 1467.34 753.274 1455.81 745.042L1452.72 749.383M1519.1 802.789C1525.88 808.89 1532.6 815.155 1539.25 821.588C1542.9 825.117 1546.57 828.602 1550.24 832.045L1553.88 828.159C1550.24 824.733 1546.6 821.262 1542.96 817.753C1536.25 811.277 1529.49 804.967 1522.68 798.826L1519.1 802.789M1582.01 860.74C1592.94 870.215 1603.92 879.337 1614.94 888.117L1618.26 883.943C1607.3 875.21 1596.38 866.137 1585.5 856.709L1582.01 860.74M1649 914.078C1660.68 922.589 1672.4 930.735 1684.16 938.54L1687.1 934.096C1675.41 926.336 1663.76 918.232 1652.14 909.767L1649 914.078ZM1720.36 961.421C1732.73 968.853 1745.13 975.927 1757.57 982.657L1760.1 977.968C1747.74 971.274 1735.41 964.24 1723.1 956.851L1720.36 961.421M1795.69 1002.21C1808.64 1008.48 1821.63 1014.43 1834.63 1020.04L1836.76 1015.14C1823.81 1009.56 1810.91 1003.65 1798.01 997.408L1795.69 1002.21M1874.35 1036.15C1887.79 1041.27 1901.23 1046.07 1914.7 1050.56L1916.4 1045.51C1903.01 1041.03 1889.61 1036.26 1876.26 1031.16L1874.35 1036.15M1955.61 1063.32C1969.39 1067.32 1983.19 1071.03 1996.99 1074.48L1998.27 1069.31C1984.56 1065.87 1970.83 1062.17 1957.11 1058.19L1955.61 1063.32M2038.74 1084.13C2052.76 1087.12 2066.79 1089.87 2080.79 1092.39L2081.74 1087.14C2067.78 1084.63 2053.82 1081.9 2039.86 1078.92L2038.74 1084.13M2123.08 1099.35C2137.26 1101.47 2151.4 1103.39 2165.54 1105.13L2166.19 1099.84C2152.1 1098.1 2138 1096.19 2123.89 1094.07L2123.08 1099.35M2208.14 1109.9C2222.39 1111.34 2236.62 1112.62 2250.8 1113.78L2251.23 1108.45C2237.07 1107.29 2222.88 1106.02 2208.65 1104.59L2208.14 1109.9ZM2293.51 1116.91C2307.83 1117.86 2322.08 1118.7 2336.27 1119.47L2336.56 1114.14C2322.38 1113.38 2308.15 1112.52 2293.87 1111.59L2293.51 1116.91M2379.05 1121.6C2393.36 1122.27 2407.64 1122.9 2421.8 1123.5L2422.03 1118.17C2407.86 1117.56 2393.61 1116.94 2379.29 1116.28L2379.05 1121.6ZM2464.58 1125.32C2478.92 1125.95 2493.17 1126.59 2507.31 1127.28L2507.58 1121.95C2493.42 1121.25 2479.14 1120.62 2464.8 1120L2464.58 1125.32M2550.02 1129.58C2564.36 1130.42 2578.59 1131.36 2592.69 1132.43L2593.09 1127.11C2578.95 1126.04 2564.7 1125.1 2550.34 1124.24L2550.02 1129.58M2635.26 1136.08C2649.56 1137.48 2663.7 1139.04 2677.68 1140.83L2678.38 1135.54C2664.31 1133.75 2650.12 1132.17 2635.78 1130.78L2635.26 1136.08M2719.92 1146.95C2734.06 1149.27 2748.04 1151.85 2761.82 1154.76L2762.92 1149.55C2749.05 1146.63 2735 1144.01 2720.77 1141.68L2719.92 1146.95M2803.25 1164.63C2817.03 1168.31 2830.63 1172.38 2843.96 1176.87L2845.67 1171.81C2832.2 1167.28 2818.51 1163.19 2804.62 1159.47L2803.25 1164.63ZM2883.81 1191.85C2896.85 1197.31 2909.64 1203.26 2922.18 1209.74L2924.64 1204.99C2911.96 1198.45 2899.05 1192.44 2885.88 1186.94L2883.81 1191.85ZM2958.96 1230.77C2970.83 1238.26 2982.41 1246.3 2993.74 1254.96L2996.97 1250.72C2985.53 1241.96 2973.8 1233.83 2961.82 1226.26L2958.96 1230.77M3026.15 1282.19C3036.38 1291.58 3046.34 1301.56 3056.05 1312.19L3059.98 1308.59C3050.18 1297.85 3040.11 1287.76 3029.77 1278.25L3026.15 1282.19ZM3083.29 1344.63C3091.74 1355.58 3099.95 1367.08 3107.95 1379.19L3112.4 1376.25C3104.33 1364.04 3096.04 1352.42 3087.52 1341.38L3083.29 1344.63ZM3130.09 1415.52C3130.61 1416.45 3131.15 1417.38 3131.67 1418.31C3138.52 1430.59 3144.71 1443.35 3150.12 1456.52L3155.02 1454.5C3149.56 1441.14 3143.29 1428.16 3136.32 1415.69C3135.8 1414.76 3135.26 1413.83 3134.75 1412.91L3130.09 1415.52" fill="#E4E4E4"/>
<path d="M3125.19 2074.92H-0.240967C97.5714 1352.25 759.865 793.276 1562.47 793.276C2365.02 793.276 3027.38 1352.25 3125.19 2074.92Z" fill="#9D9818"/>
<path d="M2717.81 2068.57H1542.23C1487.5 2068.57 1443.12 2024.2 1443.12 1969.47V283.196C1443.12 228.45 1487.5 184.087 1542.23 184.087H2717.81C2772.52 184.087 2816.9 228.45 2816.9 283.196V1969.47C2816.9 2024.2 2772.52 2068.57 2717.81 2068.57Z" fill="#CB5601"/>
<path d="M2698 260.044V1902.55H1567.29V260.044H2698Z" fill="#F6F5F5"/>
<path d="M2697.98 260.047C2698.34 900.543 2719.02 1673 2647.06 1844.03C2330.18 1874.91 1959.14 1884.81 1567.26 1886.65L1716.21 265.016L2697.98 260.047" fill="#E4E4E4"/>
<path d="M2596.44 1792.27C2102.51 1871.32 1772.41 1875.49 1504.66 1855.61C1539.36 1486.27 1553.29 872.705 1567.27 260.126L2162.45 261.438L2701.11 296.998C2708.96 932.799 2709.82 1520.09 2596.44 1792.27" fill="white"/>
<path d="M2536.59 647.234L2000.06 634.606L1999.07 676.078L2535.6 688.704L2536.59 647.234Z" fill="#1E1E1E"/>
<path d="M2362.61 733.613L1997.92 725.031L1996.95 766.501L2361.63 775.085L2362.61 733.613" fill="#D3DFFF"/>
<path d="M1828 760.092L1700.98 757.098L1703.96 630.082L1830.99 633.076L1828 760.092Z" fill="white"/>
<path d="M1828.01 760.073L1828.12 756.078L1705.09 753.178L1707.89 634.168L1826.91 636.968L1824.03 759.988L1828.01 760.073L1828.12 756.078L1828.01 760.073L1832 760.172L1835.1 629.164L1700.08 625.98L1696.9 760.997L1831.91 764.167L1832 760.172L1828.01 760.073" fill="#708CD5"/>
<path d="M1724.69 663.497C1728.6 678.504 1735.84 741.399 1767.33 723.814C1774.61 719.758 1780.75 709.039 1786.19 702.868C1795.96 691.773 1805.72 680.691 1815.48 669.61C1835.02 647.433 1854.55 625.256 1874.08 603.08C1879.09 597.401 1856.98 583.148 1850.7 590.275C1833.34 609.989 1815.98 629.703 1798.62 649.418C1789.95 659.268 1781.25 669.118 1772.56 678.982C1766.55 685.819 1752.62 707.88 1743.68 709.836C1748.55 711.4 1753.41 712.979 1758.27 714.543C1761.7 717.368 1755.31 697.378 1755.18 696.842C1752.75 687.572 1750.33 678.287 1747.9 669.016C1745.9 661.354 1721.72 652.141 1724.69 663.497" fill="#EE3310"/>
<path d="M2436.44 875.926L1994.63 865.528L1993.66 907L2435.47 917.397L2436.44 875.926Z" fill="#1E1E1E"/>
<path d="M2529.02 968.578L1992.49 955.952L1991.51 997.423L2528.04 1010.05L2529.02 968.578Z" fill="#D3DFFF"/>
<path d="M1822.57 991.005L1695.56 988.018L1698.54 861.003L1825.56 863.99L1822.57 991.005Z" fill="white"/>
<path d="M1822.57 991.01L1822.65 987.01L1699.64 984.116L1702.45 865.093L1821.46 867.901L1818.57 990.916L1822.57 991.01L1822.65 987.01L1822.57 991.01L1826.57 991.105L1829.64 860.087L1694.63 856.91L1691.46 991.926L1826.47 995.103L1826.57 991.105L1822.57 991.01" fill="#708CD5"/>
<path d="M1719.17 897.999C1723.09 913.012 1730.33 975.899 1761.82 958.314C1769.08 954.258 1775.24 943.539 1780.67 937.372C1790.43 926.284 1800.21 915.196 1809.97 904.109C1829.51 881.932 1849.03 859.764 1868.57 837.581C1873.57 831.901 1851.46 817.652 1845.18 824.777C1827.81 844.488 1810.46 864.2 1793.1 883.912C1784.42 893.768 1775.75 903.626 1767.06 913.482C1761.03 920.322 1747.1 942.382 1738.17 944.339C1743.01 945.908 1747.88 947.479 1752.74 949.048C1756.18 951.866 1749.79 931.889 1749.66 931.345C1747.23 922.071 1744.81 912.796 1742.39 903.519C1740.38 895.857 1716.21 886.643 1719.17 897.999" fill="#EE3310"/>
<path d="M2525.72 1109.08L1989.18 1096.45L1988.2 1137.92L2524.74 1150.55L2525.72 1109.08Z" fill="#1E1E1E"/>
<path d="M2226.99 1192.52L1987.04 1186.87L1986.08 1228.35L2226.01 1233.99L2226.99 1192.52" fill="#D3DFFF"/>
<path d="M1817.15 1221.92L1690.12 1218.93L1693.11 1091.92L1820.13 1094.9L1817.15 1221.92Z" fill="white"/>
<path d="M1817.14 1221.92L1817.22 1217.93L1694.21 1215.03L1697.02 1096.02L1816.02 1098.82L1813.13 1221.83L1817.14 1221.92L1817.22 1217.93L1817.14 1221.92L1821.13 1222.01L1824.21 1091L1689.19 1087.83L1686.02 1222.84L1821.04 1226.01L1821.13 1222.01L1817.14 1221.92" fill="#708CD5"/>
<path d="M1715.45 1130.57C1719.37 1145.58 1726.6 1208.47 1758.1 1190.89C1765.37 1186.83 1771.51 1176.11 1776.94 1169.94C1786.71 1158.86 1796.48 1147.77 1806.24 1136.69C1825.76 1114.51 1845.3 1092.33 1864.82 1070.15C1869.83 1064.47 1847.74 1050.22 1841.46 1057.35C1824.09 1077.06 1806.72 1096.78 1789.36 1116.48C1780.68 1126.34 1772 1136.19 1763.32 1146.06C1757.3 1152.9 1743.38 1174.95 1734.43 1176.91C1739.3 1178.48 1744.14 1180.05 1749.02 1181.62C1752.44 1184.43 1746.08 1164.46 1745.92 1163.91C1743.51 1154.64 1741.08 1145.37 1738.66 1136.09C1736.65 1128.43 1712.47 1119.22 1715.45 1130.57" fill="#EE3310"/>
<path d="M2520.29 1340L1983.76 1327.37L1982.78 1368.84L2519.31 1381.46L2520.29 1340Z" fill="#1E1E1E"/>
<path d="M2405.47 1427.77L1981.63 1417.79L1980.66 1459.27L2404.49 1469.24L2405.47 1427.77Z" fill="#D3DFFF"/>
<path d="M1811.7 1452.85L1684.68 1449.85L1687.68 1322.84L1814.69 1325.83L1811.7 1452.85" fill="white"/>
<path d="M1811.69 1452.86L1811.79 1448.86L1688.76 1445.95L1691.57 1326.94L1810.59 1329.74L1807.7 1452.76L1811.69 1452.86L1811.79 1448.86L1811.69 1452.86L1815.7 1452.95L1818.78 1321.92L1683.77 1318.75L1680.58 1453.76L1815.6 1456.95L1815.7 1452.95L1811.69 1452.86Z" fill="#708CD5"/>
<path d="M1710.06 1359.97C1713.99 1374.98 1721.23 1437.86 1752.71 1420.28C1759.98 1416.22 1766.13 1405.5 1771.55 1399.34C1781.33 1388.25 1791.09 1377.17 1800.86 1366.08C1820.4 1343.9 1839.92 1321.73 1859.45 1299.56C1864.46 1293.88 1842.35 1279.61 1836.07 1286.76C1818.71 1306.46 1801.34 1326.17 1783.98 1345.89C1775.3 1355.74 1766.62 1365.6 1757.93 1375.45C1751.92 1382.29 1738 1404.36 1729.04 1406.3C1733.91 1407.88 1738.76 1409.45 1743.64 1411.01C1747.07 1413.84 1740.69 1393.86 1740.54 1393.32C1738.13 1384.04 1735.69 1374.77 1733.28 1365.49C1731.27 1357.82 1707.09 1348.61 1710.06 1359.97" fill="#EE3310"/>
<path d="M2191.05 1561.54L1978.37 1556.54L1977.4 1598.01L2190.08 1603.02L2191.05 1561.54Z" fill="#1E1E1E"/>
<path d="M2512.76 1659.6L1976.22 1646.98L1975.25 1688.44C2182.83 1693.31 2447.13 1703.04 2501.05 1694.76C2509.25 1685.46 2513.66 1674.03 2512.76 1659.6" fill="#D3DFFF"/>
<path d="M1808.09 1682.06L1681.07 1679.08L1684.06 1552.05L1811.08 1555.05L1808.09 1682.06Z" fill="white"/>
<path d="M1808.08 1682.07L1808.17 1678.07L1685.16 1675.17L1687.95 1556.15L1806.98 1558.95L1804.08 1681.97L1808.08 1682.07L1808.17 1678.07L1808.08 1682.07L1812.08 1682.16L1815.17 1551.15L1680.16 1547.96L1676.97 1682.97L1811.98 1686.16L1812.08 1682.16L1808.08 1682.07" fill="#708CD5"/>
<path d="M1704.71 1587.37C1708.63 1602.39 1715.87 1665.27 1747.35 1647.68C1754.62 1643.63 1760.77 1632.91 1766.2 1626.75C1775.96 1615.65 1785.73 1604.56 1795.5 1593.48C1815.03 1571.31 1834.56 1549.13 1854.09 1526.96C1859.09 1521.27 1837 1507.01 1830.71 1514.15C1813.35 1533.87 1795.98 1553.57 1778.62 1573.28C1769.94 1583.15 1761.27 1593 1752.58 1602.85C1746.56 1609.69 1732.63 1631.75 1723.7 1633.71C1728.57 1635.28 1733.41 1636.85 1738.28 1638.41C1741.71 1641.24 1735.33 1621.25 1735.19 1620.72C1732.76 1611.44 1730.33 1602.16 1727.92 1592.89C1725.92 1585.23 1701.74 1576.01 1704.71 1587.37" fill="#EE3310"/>
<path d="M2384.67 195.503V322.27H1875.33V195.503C1875.33 175.296 1883.55 157.005 1896.77 143.71C1898.43 142.056 1900.13 140.509 1901.94 139.084C1914.59 128.567 1930.86 122.271 1948.57 122.271C1961.84 122.271 1974.6 119.246 1986.01 113.741C1990.97 111.35 1995.66 108.518 2000.08 105.264C2014.64 94.4836 2025.79 79.183 2031.33 60.9453C2036.99 42.3383 2048.57 26.7563 2063.55 15.9228C2077.95 5.58165 2095.49 -0.39787 2114.11 -0.39787H2145.89C2164.52 -0.39787 2182.05 5.58165 2196.45 15.9228C2211.44 26.7563 2223.01 42.3383 2228.67 60.9453C2234.21 79.183 2245.36 94.4836 2259.93 105.264C2264.36 108.518 2269.04 111.35 2274 113.741C2285.41 119.246 2298.16 122.271 2311.44 122.271C2329.15 122.271 2345.42 128.567 2358.06 139.084C2374.33 152.468 2384.67 172.781 2384.67 195.503" fill="#C4503B"/>
<path d="M2426.01 260.031V354.283H1834V260.031H1875.34V322.277H2384.67V260.031H2426.01" fill="#E4E4E4"/>
<path d="M2175.18 75.617C2175.18 99.3197 2154.95 118.54 2130.01 118.54C2105.05 118.54 2084.82 99.3197 2084.82 75.617C2084.82 51.8979 2105.05 32.6783 2130.01 32.6783C2154.95 32.6783 2175.18 51.8979 2175.18 75.617Z" fill="white"/>
<path d="M1153.89 669.12C1135.83 665.693 1118.95 635.52 1113.08 623.947C1111.64 621.107 1111.19 617.893 1111.77 614.76L1118.97 576.653C1118.97 576.653 1135.56 579.467 1134.28 601.56C1134.15 603.853 1134.61 606.147 1135.43 608.293L1141.79 624.907L1160.56 610.373L1150.27 581.293C1150.27 581.293 1136.48 585.08 1129.36 582.813C1114.76 578.147 1133.91 566.76 1139.96 565.547C1146.03 564.333 1159.35 559.493 1165.4 569.787C1171.47 580.08 1175.09 586.147 1175.09 586.147C1175.09 586.147 1181.76 563.12 1177.21 511.64C1177.01 509.32 1182.81 509.373 1184.44 511.04C1189.32 516 1197.09 531.107 1197.51 577.053C1197.51 577.053 1198.32 523.507 1207.49 518C1215.07 513.453 1218.89 539.667 1213.56 584.107C1213.56 584.107 1223.44 545.627 1230.52 545.56C1242.45 545.44 1230.67 648.333 1200.67 679L1153.89 669.12" fill="#F9B384"/>
<path d="M1210.53 653.373C1210 658.493 1209.41 663.453 1208.77 668.253V668.307C1206.64 685.373 1203.97 700.627 1200.88 713.693C1200.72 714.333 1200.61 714.92 1200.45 715.507C1191.33 752.893 1189.68 771.187 1158.53 766.28L1126.48 729.8L1126.16 729.427L1123.81 726.76L1130.32 707.56L1131.17 705.053L1135.97 691.08L1136.56 689.267L1144.77 665.213L1148.08 655.453L1210.53 653.373" fill="#F9B384"/>
<path d="M615.053 1981.72L606.892 2007.23C550.948 2025.6 518.317 2046.65 516.225 2071.23H678.004L690.972 1985.84C658.207 1993.84 631.951 1988.28 615.053 1981.72Z" fill="#1F3C88"/>
<path d="M635.337 1918.33L615.053 1981.72C631.951 1988.28 658.207 1993.84 690.972 1985.84L699.337 1930.77L635.337 1918.33" fill="#F9B384"/>
<path d="M911.92 1978.89L916.667 1914.33L840.671 1918.33L836.519 1977.85C868.693 1988.11 895.293 1984.09 911.92 1978.89" fill="#F9B384"/>
<path d="M1003.33 2071.23C1001.24 2046.65 972.667 2013 910 2005L911.92 1978.89C895.293 1984.09 868.693 1988.11 836.519 1977.85L830.004 2071.23H1003.33" fill="#1F3C88"/>
<path d="M850.323 685.694L758.644 686.333V547.667H847.551L847.604 556.147L848.031 600.094L848.671 670.654L850.323 685.694" fill="#F9B384"/>
<path d="M848.031 606.76C831.551 624.093 788.564 604.52 770.431 585.427L847.604 562.813L848.031 606.76Z" fill="#E28B6D"/>
<path d="M869.307 515.667C869.253 525.907 868.613 536.627 866.907 546.867C862.427 574.813 850.591 598.973 823.284 599.72C758.751 601.587 740.349 564.68 728.191 534.493C716.031 504.253 735.764 431.56 735.764 431.56L819.284 423.293L865.147 460.893C865.147 460.893 869.573 486.44 869.307 515.667" fill="#F9B384"/>
<path d="M730.792 517.2C730.792 517.2 749.203 516.36 752.349 468.84C785.271 479.853 809.328 469.813 828.389 447.88C844.653 469.36 890.187 476.093 905.56 432.107C916.667 400.333 886 353 841.337 381.667C797.563 359.547 731.167 361.067 712.06 415.32C712.06 415.32 645.637 445.947 715.968 513.373C717.379 514.72 730.792 517.2 730.792 517.2Z" fill="#000207"/>
<path d="M984.68 1184.07L934 1950.33H814.892L844.671 1206.77L862.893 1198.33L984.68 1184.07Z" fill="#1E1E1E"/>
<path d="M674.448 1079.23L590.892 1950.33H720.671L844.225 1226.77L984.667 1184.11L990.893 1029.44L678.004 1022.33L674.448 1079.23" fill="#1E1E1E"/>
<path d="M958.133 1028.69H958.067L958 1028.43L958.133 1028.69Z" fill="#6C758D"/>
<path d="M774.519 1090.65C776.209 1082.85 777.783 1075.07 779.24 1067.33C780.747 1067.35 782.249 1067.36 783.752 1067.36C790.184 1067.36 796.595 1067.19 802.964 1066.87C823.337 1065.91 843.337 1063.35 862.533 1059.56C894.693 1053.32 924.88 1043.88 951.387 1033.11C953.787 1032.2 956.133 1031.19 958.427 1030.23L958.067 1028.69H958.133L964.8 1042.05C940.413 1067.08 850.324 1088.93 774.519 1090.65" fill="#162B62"/>
<path d="M958.427 1030.23C956.133 1031.19 953.787 1032.2 951.387 1033.11C924.88 1043.88 894.693 1053.32 862.533 1059.56C843.337 1063.35 823.337 1065.91 802.964 1066.87C772.243 1068.41 740.671 1066.39 709.417 1059.29L749.149 688.84L754.004 643.667C754.004 643.667 806.004 707.667 863.333 637L958.427 1030.23Z" fill="white"/>
<path d="M783.752 1067.36C782.249 1067.36 780.747 1067.35 779.24 1067.33C804.012 935.707 795.651 812.48 772.379 692.587C804.068 785.64 831.571 953.027 802.964 1066.87C796.595 1067.19 790.184 1067.36 783.752 1067.36Z" fill="#BBC4DB"/>
<path d="M758.671 629C798.176 796.733 814.431 969.333 756.225 1161C713.063 1177.41 666.068 1177.23 615.781 1162.77L628.225 814.333L335.337 1015.67L317.56 905.893C430.148 798.227 624.812 635.6 758.671 629Z" fill="#CD7543"/>
<path d="M862.533 1059.56C844.884 958.333 840.991 792.04 855.333 717L951.387 1033.11C924.88 1043.88 894.693 1053.32 862.533 1059.56" fill="#BBC4DB"/>
<path d="M1167.55 767.067C1164.85 767.067 1161.87 766.8 1158.53 766.28L1126.48 729.8L1126.16 729.427L1130.32 707.56L1131.17 705.054L1135.97 691.08L1136.56 689.267L1200.88 713.694C1200.72 714.334 1200.61 714.92 1200.45 715.507C1192.31 748.894 1190.12 767.067 1167.55 767.067" fill="#EB9B76"/>
<path d="M1195.33 747.667C1195.33 747.667 1116.67 914.334 1070 918.334C1024.76 922.214 1003.33 878.334 1003.33 878.334L1035.33 1121.91C997.733 1139.51 956.72 1148.09 909.093 1139.67C866.8 1002.33 850.817 824.76 847.671 627C881.907 629.134 949.72 632.054 974 647.667C1017.56 675.667 1071.33 775.667 1071.33 775.667L1134 690.334L1195.33 747.667Z" fill="#CD7543"/>
<path d="M236.325 512.827C236.325 512.827 241.087 433.107 249.201 436.867C257.316 440.627 273.589 509.947 273.589 509.947L256.188 538.04L236.325 512.827" fill="#1E1E1E"/>
<path d="M475.733 1952.56L478.091 1978.8C482.252 2025.12 448.072 2066.05 401.751 2070.21L395.005 2070.81C348.685 2074.97 307.755 2040.8 303.593 1994.48L301.236 1968.24L475.733 1952.56Z" fill="#D97866"/>
<path d="M361.577 681.947L475.735 1952.56L301.236 1968.24L187.08 697.613L361.577 681.947Z" fill="#FBC343"/>
<path d="M238.015 693.04L235.248 662.253L307.844 655.733L310.611 686.52L299.987 687.48L298.175 667.307L246.827 671.92L248.639 692.093L238.015 693.04" fill="#D4C2BE"/>
<path d="M336.264 1786.61L238.015 693.04L248.639 692.093L345.935 1775.03L397.283 1770.41L299.987 687.48L310.611 686.52L408.384 1774.77L403.072 1775.25L408.384 1774.77L408.861 1780.09L336.264 1786.61" fill="#D1983B"/>
<path d="M475.711 1952.57L301.257 1968.25L296.671 1917.05L293.471 1881.48L283.604 1772.15L458.111 1756.47L467.924 1865.8L471.124 1901.37L475.711 1952.57" fill="#102048"/>
<path d="M471.124 1901.37L296.671 1917.05L293.471 1881.48L467.924 1865.8L471.124 1901.37Z" fill="#FBC343"/>
<path d="M187.057 697.627L235.528 503.36C235.528 503.36 252.259 510.787 272.552 498.253L361.568 681.947L187.057 697.627" fill="#D97866"/>
<path d="M740.446 509.16C739.665 506.293 726.642 502.36 723.773 501.573C719.34 500.347 714.5 499.747 710.173 501.693C694.424 508.813 696.529 531.36 704.688 543.213C709.311 549.92 716.077 555.093 723.948 557.347C726.808 558.16 753.899 558.493 752.711 554.133L740.446 509.16" fill="#F9B384"/>
<path d="M244.671 962.334C240.577 949.48 227.112 942.28 214.368 946.68C194.516 953.533 177.227 965.16 174.548 984.947C172.111 1002.96 181.12 1060.49 221.361 1067.89L218.076 1038.32C218.076 1038.32 242.715 1032.57 247.643 1021.89C251.091 1014.43 251.321 983.214 244.671 962.334Z" fill="#F9B384"/>
<path d="M991.04 764.44C993.16 777.027 994.96 789.654 996.68 802.294C998.48 814.92 999.893 827.6 1001.52 840.254L1005.65 878.28C1006.85 890.987 1008.04 903.68 1008.81 916.44L1006.75 916.68C1004.56 904.094 1002.79 891.454 1001.03 878.827L996.267 840.867C994.933 828.174 993.387 815.52 992.213 802.814C990.973 790.12 989.813 777.414 988.973 764.68L991.04 764.44" fill="#1F3C88"/>
<path d="M632.379 762.387C632.349 776.52 632.004 790.653 631.585 804.773C631.228 818.893 630.5 833.014 629.976 847.12L627.664 889.44C626.72 903.547 625.749 917.64 624.379 931.72L622.296 931.613C622.257 917.48 622.621 903.347 623.009 889.227L624.697 846.88C625.507 832.773 626.112 818.654 627.088 804.56C628.003 790.467 628.991 776.36 630.296 762.28L632.379 762.387Z" fill="#1F3C88"/>
<path d="M805.172 507.84C806.299 512.867 804.227 517.613 800.544 518.44C796.861 519.267 792.963 515.854 791.836 510.827C790.708 505.8 792.78 501.054 796.463 500.227C800.145 499.4 804.044 502.814 805.172 507.84" fill="#102048"/>
<path d="M858.333 501.627C858.107 506.773 854.88 510.813 851.109 510.653C847.337 510.493 844.459 506.2 844.676 501.04C844.895 495.893 848.128 491.853 851.893 492.013C855.667 492.173 858.547 496.467 858.333 501.627" fill="#102048"/>
<path d="M828.689 505.84C830.517 510.253 830.228 515 831.409 518.613C832.011 520.44 832.841 522.053 833.992 523.053C835.061 524.027 836.796 524.653 838.996 525.507C841.263 526.387 843.671 527.947 845.316 530.28C847.06 532.533 847.54 536.44 845.961 539C844.543 541.56 842.503 542.973 840.751 544.267C838.92 545.507 837.16 546.813 835.259 547.973L833.889 546.4C835.288 544.68 836.828 543.107 838.297 541.467C839.813 539.893 841.205 538.373 841.741 536.973C842.871 534.507 840.453 531.8 836.952 530.413C835.149 529.587 832.549 528.867 830.452 526.72C828.429 524.653 827.429 522.08 827.029 519.667C826.148 514.72 827.156 510.493 826.677 506.387L828.689 505.84" fill="#E28B6D"/>
<path d="M779.725 494.333C780.512 491.173 782.44 488.173 785.169 486.027C787.855 483.787 791.361 482.587 794.837 482.4C801.841 481.973 808.775 485.96 811.653 491.853L810.02 493.147C805.389 489.507 800.289 487.52 795.093 487.707C789.883 487.84 785.152 490.52 781.615 495.213L779.725 494.333Z" fill="#102048"/>
<path d="M834.772 487.8C835.559 485.333 836.947 482.987 838.959 481.067C840.927 479.093 843.673 477.787 846.528 477.32C852.253 476.374 858.413 479.28 860.667 484.373L859 485.627C855.253 483.107 851.168 482.04 847.312 482.573C845.383 482.827 843.551 483.547 841.741 484.613C839.963 485.72 838.341 487.227 836.568 488.867L834.772 487.8" fill="#102048"/>
<path d="M805.269 557.494C814.581 572.067 826.989 573.654 836.572 558.32L805.269 557.494Z" fill="white"/>
<path d="M866.907 546.867C866.92 546.813 866.933 546.76 866.933 546.707C866.933 546.76 866.92 546.813 866.907 546.867ZM868.827 529.907C869.133 525.12 869.28 520.347 869.307 515.667C869.32 514.493 869.32 513.32 869.32 512.147C869.4 512.133 869.48 512.12 869.56 512.107C869.533 517.347 869.28 523.64 868.827 529.907" fill="#FECFC9"/>
<path d="M866.907 546.867C860.453 544.787 855.76 538.76 855.76 531.56C855.76 523.587 861.8 513.547 869.32 512.147C869.32 513.32 869.32 514.493 869.307 515.667C869.28 520.347 869.133 525.12 868.827 529.907C868.387 535.84 867.76 541.733 866.933 546.707C866.933 546.76 866.92 546.813 866.907 546.867" fill="#FAA280"/>
<path d="M782.536 558.28C773.037 558.28 765.337 550.587 765.337 541.093C765.337 531.587 773.037 523.893 782.536 523.893C792.035 523.893 799.736 531.587 799.736 541.093C799.736 550.587 792.035 558.28 782.536 558.28Z" fill="#FAA280"/>
<path d="M729.173 526.293C725.776 523.987 722.659 521.467 719.557 519.96C718.02 519.213 716.591 518.76 715.315 518.867C714.028 518.96 712.545 519.707 710.879 520.893L709.128 519.76C709.855 517.64 711.385 515.253 714.195 514.32C716.987 513.347 719.817 514.133 721.912 515.213C726.159 517.533 729.065 520.947 730.833 525.04L729.173 526.293" fill="#E28B6D"/>
<path d="M222.889 1097.11L220.413 1068.64L222.953 1096.92L222.889 1097.11" fill="#A9857E"/>
<path d="M222.953 1096.92L220.413 1068.64L220.331 1067.69C220.672 1067.76 221.015 1067.83 221.361 1067.89L218.076 1038.32C218.076 1038.32 218.941 1038.12 220.38 1037.72C224.477 1036.69 228.043 1035.45 231.185 1034.04C237.913 1031.27 245.2 1027.19 247.643 1021.89L222.953 1096.92" fill="#A76D33"/>
<path d="M221.361 1067.89C221.015 1067.83 220.672 1067.76 220.331 1067.69L217.779 1038.33C218.668 1038.13 219.536 1037.93 220.38 1037.72C218.941 1038.12 218.076 1038.32 218.076 1038.32L221.361 1067.89M231.185 1034.04C238.584 1030.72 243.62 1026.48 247.643 1021.89C245.2 1027.19 237.913 1031.27 231.185 1034.04Z" fill="#A6674D"/>
</g>
</svg>
