<svg width="365" height="496" viewBox="0 0 365 496" fill="none" xmlns="http://www.w3.org/2000/svg">
<mask id="mask0_13_245" style="mask-type:alpha" maskUnits="userSpaceOnUse" x="0" y="0" width="365" height="496">
<rect width="365" height="496" fill="#D9D9D9"/>
</mask>
<g mask="url(#mask0_13_245)">
<path d="M201.636 329.333V165.065H159.401V120H143.812V97.3333H86.2773V-6.17504e-05H73.4946V97.3333H21.296V120H1.79065V329.333H201.636" fill="#67E98B"/>
<path d="M364.667 329.333V97.3332H269.037V158.667H243.412V329.333H364.667Z" fill="#67E98B"/>
<path d="M364.667 360.436V267.72C191.531 276.471 -24.116 340.283 -88.5613 360.436H364.667Z" fill="#8E5908"/>
<path d="M195.427 348.924H-195V260.059C-111.92 263.977 102.68 280.551 195.427 348.924" fill="#ACDF8F"/>
<path d="M364.667 326.364V480.626H-302V326.364H364.667Z" fill="#DFDFDD"/>
<path d="M364.667 489.351H-302V471.572H364.667V489.351Z" fill="#1E1E1E"/>
<path d="M364.667 489.351V502.684H-302V489.351H364.667Z" fill="#1E1E1E"/>
<path d="M13.0787 422.549C13.0787 427.115 -20.136 430.815 -61.1067 430.815C-102.077 430.815 -135.289 427.115 -135.289 422.549C-135.289 417.984 -102.077 414.284 -61.1067 414.284C-20.136 414.284 13.0787 417.984 13.0787 422.549Z" fill="#C6C5C3"/>
<path d="M78.3667 405.324C78.3667 409.889 45.1547 413.589 4.18399 413.589C-36.7867 413.589 -70 409.889 -70 405.324C-70 400.759 -36.7867 397.059 4.18399 397.059C45.1547 397.059 78.3667 400.759 78.3667 405.324Z" fill="#C6C5C3"/>
<path d="M346.04 379.243C346.04 383.808 312.827 387.508 271.856 387.508C230.885 387.508 197.672 383.808 197.672 379.243C197.672 374.677 230.885 370.976 271.856 370.976C312.827 370.976 346.04 374.677 346.04 379.243Z" fill="#C6C5C3"/>
<path d="M276.612 409.779C276.612 414.209 235.851 417.803 185.569 417.803C135.288 417.803 94.528 414.209 94.528 409.779C94.528 405.348 135.288 401.756 185.569 401.756C235.851 401.756 276.612 405.348 276.612 409.779Z" fill="#C6C5C3"/>
<path d="M231.959 456.252C231.959 461.316 173.416 465.423 101.197 465.423C28.9787 465.423 -29.5653 461.316 -29.5653 456.252C-29.5653 451.187 28.9787 447.081 101.197 447.081C173.416 447.081 231.959 451.187 231.959 456.252" fill="#C6C5C3"/>
<path d="M230.205 386.624C228.304 387.133 222.725 379.176 221.827 377.043C220.929 374.912 221.317 371.275 221.487 369.372C221.644 367.472 216.98 361.439 217.873 359.232C218.139 358.587 218.911 358.123 219.901 357.765C222.348 356.921 226.165 356.805 226.957 356.744C228.079 356.659 228.629 357.969 228.629 357.969C228.629 357.969 228.632 357.979 228.624 357.992C228.449 358.389 226.324 363.584 226.865 365.305C226.908 365.435 226.977 365.547 227.056 365.647C227.04 366.125 227.059 366.519 227.145 366.789C227.625 368.343 232.379 368.313 233.663 368.641C233.567 369.633 233.304 370.784 232.959 371.955C232.944 371.979 232.939 372.003 232.933 372.025C232.064 374.376 230.896 377.369 230.36 378.725C230.329 378.819 230.295 378.903 230.259 378.976C230.227 379.069 230.193 379.152 230.165 379.213C229.548 380.729 231.005 382.813 231.244 383.587C231.337 383.929 231.529 384.465 231.529 385.003C231.531 385.681 231.257 386.339 230.205 386.624" fill="#FFFFF7"/>
<path d="M234.12 372.472C233.983 371.933 233.731 371.791 233.248 371.595C232.859 371.439 232.473 371.271 232.079 371.131C231.453 370.907 230.545 370.42 229.94 370.896C229.708 371.077 229.759 371.373 229.948 371.556C230.409 372 231.125 372.308 231.693 372.591C232.264 372.876 233.107 373.485 233.733 373.145C233.959 373.024 234.193 372.757 234.12 372.472" fill="#FFFFF7"/>
<path d="M233.657 375.949C233.452 375.193 232.781 374.805 232.156 374.375C231.544 373.956 230.868 373.472 230.153 373.257C229.588 373.088 228.98 373.711 229.417 374.237C229.877 374.788 230.496 375.204 231.059 375.644C231.568 376.041 232.2 376.719 232.872 376.735C233.263 376.743 233.787 376.429 233.657 375.949" fill="#FFFFF7"/>
<path d="M210.716 210.219L205.913 220.295L196.109 215.621L200.907 202.26L206.221 203.745L210.005 201.191L210.716 210.219Z" fill="#F8A497"/>
<path d="M210.716 210.219L209.141 213.519C208.165 212.371 207.421 211.015 206.941 209.583C206.46 208.123 206.093 205.836 206.221 203.745L210.005 201.191L210.716 210.219Z" fill="#F57D79"/>
<path d="M226.236 204.051C226.157 203.512 225.972 202.987 225.788 202.464C225.408 201.388 225.028 200.309 224.648 199.233C224.576 199.029 224.508 198.823 224.429 198.619C224.547 193.317 224.02 188.295 223.175 187.068C221.42 184.519 214.925 185.249 214.925 185.249C214.925 185.249 209.645 189.251 207.756 196.019C207.313 195.251 206.66 194.645 205.732 194.909C203.589 195.517 202.056 198.269 203.253 200.541C203.977 201.913 205.853 202.637 207.229 202.997C207.351 203.995 207.397 205.08 207.859 206.088C212.655 216.569 220.548 213.151 221.396 212.332C222.616 211.153 223.419 208.509 223.893 205.351C224.397 205.317 224.895 205.249 225.368 205.107C225.723 204.999 226.097 204.832 226.215 204.525C226.272 204.375 226.259 204.209 226.236 204.051" fill="#F8A497"/>
<path d="M207.504 197.204C206.495 196.183 204.313 196.792 204.249 198.299C204.245 198.391 204.367 198.419 204.404 198.336C204.976 197.081 206.78 196.867 207.367 198.193C207.475 198.441 207.532 198.677 207.553 198.905C207.22 198.663 206.639 198.548 206.372 198.576C205.661 198.648 205.017 199.364 205.256 200.083C205.353 200.377 205.735 200.225 205.785 199.993C205.875 199.58 206.015 199.247 206.473 199.148C206.648 199.111 207.521 199.184 207.484 199.409C207.476 199.449 207.487 199.483 207.507 199.508C207.384 200.021 207.056 200.479 206.592 200.879C206.388 201.056 206.596 201.425 206.851 201.291C208.301 200.525 208.66 198.376 207.504 197.204" fill="#F57D79"/>
<path d="M235.971 242.812L242.161 250.04C242.161 250.04 222.565 274.044 213.767 276.049C209.079 277.111 203.497 276.26 190.729 261.679C195.637 258.789 203.623 254.181 208.365 251.928C209.155 255.043 209.624 257.183 209.624 257.183L235.971 242.812" fill="#F57D79"/>
<path d="M235.971 242.812C235.971 242.812 236.1 235.68 237.457 234.531C238.816 233.383 240.292 237.753 240.292 237.753C240.292 237.753 243.987 233.34 244.873 233.384C245.761 233.429 247.715 235.641 248.207 237.033C248.207 237.033 250.697 239.559 250.843 240.833C250.989 242.107 249.505 244.759 248.843 245.757C248.18 246.756 242.161 250.04 242.161 250.04L235.971 242.812" fill="#F57D79"/>
<path d="M199.991 302.484C199.991 302.484 194.453 313.547 187.775 325.32C180.356 338.411 171.515 352.364 167.305 352.911C159.32 353.939 105.857 331.785 105.857 331.785L94.2013 326.863L106.164 319.469C106.164 319.469 142.865 322.649 146.436 323.945C151.139 325.653 159.485 332.312 159.485 332.312C159.845 329.781 162.192 320.277 164.672 312.775C169.22 298.944 175.292 282.067 175.292 282.067L199.991 302.484" fill="#F57D79"/>
<path d="M199.991 302.484C199.991 302.484 194.453 313.547 187.775 325.32C181.035 323.191 170.867 316.881 164.672 312.775C169.22 298.944 175.292 282.067 175.292 282.067L199.991 302.484" fill="#173544"/>
<path d="M215.773 251.249C215.513 252.489 213.972 256.035 211.968 260.388C207.341 270.42 200.164 284.689 200.164 284.689L167.573 279.025C170.659 272.509 176.323 262.219 176.323 262.219C176.323 262.219 173.569 234.271 173.239 229.297C172.892 224.311 183.184 208.541 185.072 207.504C186.96 206.48 194.499 207.504 194.499 207.504C203.075 211.107 211.651 217.291 213.367 221.053C213.943 222.321 214.505 225.665 214.952 229.716C215.845 237.744 216.336 248.511 215.773 251.249" fill="#FA2727"/>
<path d="M215.773 251.249C215.513 252.489 213.972 256.035 211.968 260.388C207.139 259.912 202.368 258.587 198.016 256.525C199.443 252.777 200.884 249.059 202.325 245.311C201.373 240.064 200.164 234.876 198.679 229.773C203.911 228.605 209.576 228.577 214.952 229.716C215.845 237.744 216.336 248.511 215.773 251.249" fill="#FFFFF7"/>
<path d="M251.939 391.329L251.135 403.952L240.423 395.768C240.423 395.768 222.713 362.897 221.941 355.436C221.169 347.976 221.787 337.561 221.787 337.561C221.787 337.561 207.811 330.357 193.929 322.237C182.435 315.508 170.98 308.149 167.573 303.724C160.031 293.948 167.573 279.027 167.573 279.027L200.165 284.687C200.165 284.687 208.521 293.927 217.239 303.735C226.335 313.953 235.813 324.791 236.605 326.364C238.149 329.452 251.939 391.329 251.939 391.329" fill="#F8A497"/>
<path d="M217.239 303.735C214.737 307.449 211.537 310.743 208.028 313.552C203.705 317 198.889 319.768 193.929 322.237C182.435 315.508 170.98 308.149 167.573 303.724C160.031 293.948 167.573 279.027 167.573 279.027L200.165 284.687C200.165 284.687 208.521 293.927 217.239 303.735" fill="#1D495F"/>
<path d="M89.2347 351.585C86.8373 350.9 85.9627 338.628 86.376 335.727C86.7893 332.827 89.58 329.133 91.0027 327.176C92.4133 325.215 91.2773 315.627 93.6827 313.812C94.3907 313.285 95.532 313.284 96.84 313.543C100.047 314.219 104.267 316.577 105.167 317.028C106.44 317.665 106.185 319.448 106.185 319.448C106.185 319.448 106.181 319.46 106.164 319.469C105.717 319.787 100.025 324.04 99.492 326.263C99.452 326.432 99.4547 326.599 99.4747 326.759C99.148 327.267 98.912 327.707 98.8293 328.056C98.3387 330.056 103.517 333.12 104.699 334.312C103.948 335.327 102.913 336.405 101.777 337.452C101.745 337.469 101.724 337.489 101.703 337.512C99.228 339.497 96.012 341.987 94.5453 343.111C94.4507 343.192 94.36 343.26 94.272 343.316C94.1773 343.397 94.0853 343.467 94.016 343.513C92.3587 344.756 92.584 347.971 92.34 348.964C92.2173 349.397 92.0787 350.104 91.7267 350.689C91.2867 351.425 90.5613 351.963 89.2347 351.585" fill="#FFFFF7"/>
<path d="M91.7267 350.689C89.8613 348.099 89.2027 338.008 89.5747 335.415C89.988 332.515 92.7787 328.819 94.2014 326.863C95.608 324.915 94.4867 315.456 96.84 313.543C100.047 314.219 104.267 316.577 105.167 317.028C106.44 317.665 106.185 319.448 106.185 319.448C106.185 319.448 106.181 319.46 106.164 319.469C105.717 319.787 100.025 324.04 99.492 326.263C99.452 326.432 99.4547 326.599 99.4747 326.759C99.9094 328.912 105.909 331.135 105.857 331.785C105.785 332.541 105.36 333.409 104.699 334.312C103.948 335.327 102.913 336.405 101.777 337.452C101.745 337.469 101.724 337.489 101.703 337.512C99.1094 339.877 95.992 342.092 94.5454 343.111C94.4507 343.192 94.36 343.26 94.272 343.316C94.1774 343.397 94.0854 343.467 94.016 343.513C92.3587 344.756 92.584 347.971 92.34 348.964C92.2174 349.397 92.0787 350.104 91.7267 350.689" fill="#3FBCA1"/>
<path d="M102.7 338.769C102.903 338.096 102.721 337.776 102.324 337.251C102.004 336.827 101.695 336.392 101.359 335.983C100.825 335.333 100.156 334.215 99.1893 334.336C98.8187 334.381 98.6813 334.737 98.768 335.059C98.98 335.84 99.556 336.64 99.9893 337.319C100.421 338 100.94 339.211 101.841 339.251C102.165 339.263 102.593 339.128 102.7 338.769" fill="#FFFFF7"/>
<path d="M99.9333 342.244C100.203 341.288 99.728 340.429 99.328 339.556C98.9373 338.703 98.5187 337.739 97.8827 337.039C97.38 336.488 96.312 336.768 96.4453 337.623C96.5853 338.521 96.9867 339.376 97.3107 340.22C97.6053 340.984 97.8506 342.131 98.5693 342.585C98.988 342.848 99.7613 342.851 99.9333 342.244" fill="#FFFFF7"/>
<path d="M276.607 399.065C276.895 401.543 265.9 407.067 263.064 407.8C260.228 408.532 255.745 407.376 253.391 406.813C251.04 406.265 242.624 411 240.025 409.476C239.265 409.024 238.825 407.972 238.561 406.664C237.955 403.444 238.509 398.643 238.58 397.637C238.679 396.217 240.423 395.768 240.423 395.768C240.423 395.768 240.436 395.767 240.449 395.779C240.916 396.071 247.029 399.691 249.287 399.328C249.457 399.3 249.611 399.232 249.751 399.153C250.345 399.259 250.843 399.309 251.196 399.251C253.232 398.935 254.069 392.976 254.717 391.427C255.941 391.731 257.335 392.271 258.737 392.919C258.765 392.941 258.793 392.953 258.821 392.964C261.607 394.484 265.141 396.497 266.741 397.42C266.853 397.476 266.951 397.533 267.036 397.592C267.148 397.649 267.247 397.707 267.317 397.753C269.101 398.807 271.981 397.364 272.992 397.205C273.44 397.152 274.145 397.009 274.82 397.109C275.669 397.233 276.444 397.696 276.607 399.065" fill="#FFFFF7"/>
<path d="M274.82 397.109C273.147 399.828 264.084 404.313 261.547 404.967C258.709 405.699 254.227 404.543 251.873 403.981C249.535 403.432 241.233 408.103 238.561 406.664C237.955 403.444 238.509 398.643 238.58 397.637C238.679 396.217 240.423 395.768 240.423 395.768C240.423 395.768 240.436 395.767 240.449 395.779C240.916 396.071 247.029 399.691 249.287 399.328C249.457 399.3 249.611 399.232 249.751 399.153C251.571 397.925 251.319 391.531 251.939 391.329C252.664 391.105 253.628 391.165 254.717 391.427C255.941 391.731 257.335 392.271 258.737 392.919C258.765 392.941 258.793 392.953 258.821 392.964C262.003 394.449 265.245 396.476 266.741 397.42C266.853 397.476 266.951 397.533 267.036 397.592C267.148 397.649 267.247 397.707 267.317 397.753C269.101 398.807 271.981 397.364 272.992 397.205C273.44 397.152 274.145 397.009 274.82 397.109" fill="#0E47DA"/>
<path d="M259.599 391.559C258.9 391.632 258.675 391.921 258.341 392.491C258.073 392.948 257.791 393.401 257.543 393.868C257.148 394.612 256.372 395.659 256.856 396.505C257.04 396.829 257.421 396.819 257.684 396.616C258.325 396.12 258.841 395.28 259.303 394.62C259.764 393.959 260.684 393.016 260.373 392.168C260.261 391.864 259.971 391.521 259.599 391.559" fill="#FFFFF7"/>
<path d="M263.869 392.779C262.884 392.897 262.275 393.665 261.623 394.369C260.984 395.059 260.253 395.816 259.853 396.673C259.537 397.349 260.207 398.225 260.944 397.775C261.72 397.301 262.356 396.601 263.009 395.977C263.603 395.413 264.567 394.745 264.709 393.907C264.792 393.42 264.496 392.704 263.869 392.779" fill="#FFFFF7"/>
<path d="M194.505 229.619C192.92 232.676 177.896 233.551 169.621 233.797C166.411 233.9 164.219 233.9 164.219 233.9L172.607 262.715L164.219 267.212C164.219 267.212 144.975 242.925 144.903 233.9C144.872 229.095 146.899 223.825 163.88 214.481C164.137 214.337 164.404 214.193 164.672 214.049C182.383 204.448 194.505 207.504 194.505 207.504C194.505 207.504 196.708 225.369 194.505 229.619" fill="#FA2727"/>
<path d="M194.417 213.176C193.937 212.2 192.604 212.931 192.771 213.871C193.635 218.728 193.572 223.237 189.779 226.917C186.836 229.772 182.587 230.476 178.872 231.864C177.964 232.203 178.34 233.663 179.277 233.337C184.343 231.576 189.369 231.075 192.823 226.48C195.635 222.741 196.505 217.428 194.417 213.176Z" fill="#E99516"/>
<path d="M172.607 262.715L164.219 267.212C164.219 267.212 144.975 242.925 144.903 233.9C144.872 229.095 146.899 223.825 163.88 214.481C165.649 219.893 168.439 228.683 169.621 233.797C166.411 233.9 164.219 233.9 164.219 233.9L172.607 262.715Z" fill="#F8A497"/>
<path d="M172.607 262.715C172.607 262.715 179.545 264.369 180.376 265.943C181.207 267.516 176.621 268.021 176.621 268.021C176.621 268.021 180.139 272.576 179.905 273.432C179.672 274.289 177.092 275.723 175.627 275.905C175.627 275.905 172.627 277.797 171.351 277.667C170.075 277.535 167.803 275.517 166.969 274.656C166.136 273.795 164.219 267.212 164.219 267.212L172.607 262.715" fill="#F8A497"/>
<path d="M214.475 186.117C214.567 186.088 210.719 193.72 207.967 197C207.233 196.161 206.707 195.172 205.493 195.685C203.384 196.577 202.672 199.755 204.457 201.257C204.757 201.509 207.149 202.621 207.105 203.036C207.045 203.577 207.216 204.117 207.213 204.663C207.211 205.208 206.944 205.832 206.409 205.937C206.123 205.993 205.831 205.885 205.565 205.761C204.645 205.333 203.824 204.695 203.181 203.908C203.377 204.489 203.484 205.301 202.928 205.56C202.456 205.781 201.941 205.372 201.592 204.983C199.681 202.856 198.188 200.364 197.149 197.699C196.257 195.409 195.695 192.915 196.115 190.493C196.535 188.072 198.087 185.748 200.397 184.911C200.085 183.333 200.676 181.745 201.772 180.569C202.869 179.392 204.339 178.632 205.833 178.04C211.611 175.749 217.995 175.681 224.209 175.643C224.652 175.641 225.112 175.641 225.515 175.829C225.917 176.016 226.243 176.448 226.157 176.884C226.092 177.219 225.815 177.464 225.548 177.677C224.7 178.355 223.8 178.967 222.859 179.504C225.547 178.996 228.38 179.283 230.912 180.323C231.347 180.501 231.825 180.767 231.911 181.228C232.016 181.805 231.452 182.265 230.948 182.565C229.199 183.609 227.347 184.479 225.425 185.157C226.053 185.375 226.745 185.212 227.403 185.301C228.061 185.389 228.775 185.959 228.577 186.592C228.439 187.039 227.932 187.243 227.483 187.371C223.135 188.623 218.681 187.781 214.475 186.117" fill="#1D495F"/>
<path d="M48.5906 202.512C47.732 201.643 45.8773 202.163 45.8226 203.444C45.82 203.521 45.9226 203.545 45.9546 203.475C46.4413 202.407 47.9746 202.225 48.4733 203.353C48.5666 203.564 48.6146 203.764 48.632 203.959C48.348 203.753 47.8546 203.655 47.628 203.679C47.024 203.74 46.4746 204.349 46.6786 204.96C46.7613 205.211 47.0853 205.083 47.1293 204.884C47.204 204.532 47.324 204.249 47.7133 204.165C47.8626 204.133 48.6053 204.196 48.5733 204.388C48.568 204.423 48.576 204.451 48.592 204.472C48.488 204.908 48.2093 205.297 47.8146 205.637C47.6413 205.788 47.8186 206.103 48.0346 205.988C49.268 205.336 49.5746 203.508 48.5906 202.512" fill="#F57D79"/>
<path d="M76.652 380.16C76.0573 380.104 75.8213 380.309 75.448 380.729C75.1493 381.067 74.84 381.397 74.5546 381.747C74.1026 382.301 73.2827 383.047 73.5453 383.832C73.6467 384.135 73.9653 384.189 74.2186 384.063C74.8346 383.753 75.4053 383.14 75.8987 382.665C76.3933 382.189 77.316 381.555 77.1973 380.796C77.1547 380.524 76.9693 380.189 76.652 380.16" fill="#FFFFF7"/>
<path d="M80.0133 381.884C79.172 381.819 78.536 382.36 77.8747 382.84C77.2293 383.309 76.4946 383.819 76.0186 384.469C75.644 384.98 76.056 385.821 76.7467 385.568C77.472 385.301 78.1173 384.823 78.7667 384.411C79.3547 384.036 80.2693 383.64 80.5266 382.964C80.676 382.571 80.548 381.925 80.0133 381.884" fill="#FFFFF7"/>
<path d="M82.6946 237.279C82.6946 237.279 83.3067 231.243 84.5387 230.364C85.772 229.487 86.7133 233.295 86.7133 233.295C86.7133 233.295 90.1573 229.815 90.9053 229.916C91.6547 230.016 93.1533 232.029 93.472 233.244C93.472 233.244 95.4067 235.56 95.44 236.649C95.4733 237.74 94.028 239.883 93.396 240.684C92.764 241.483 87.4306 243.841 87.4306 243.841L82.6946 237.279" fill="#F8A497"/>
<path d="M45 245.227C45 245.227 45.6354 236.697 47.3579 236.057C49.0817 235.418 48.9173 240.365 48.9173 240.365C48.9173 240.365 54.0731 237.332 54.9104 237.713C55.7477 238.092 56.8257 241.054 56.7946 242.639C56.7946 242.639 58.2764 246.117 57.9541 247.451C57.6332 248.785 55.243 250.888 54.2426 251.641C53.2423 252.392 47.2375 253 47.2375 253L45 245.227" fill="#F8A497"/>
<path d="M61 309.685C61 309.685 51.2934 355.26 48.3665 363.497C46.0758 369.949 14.2291 428 14.2291 428L6 421.656L7.60635 415.266C7.60635 415.266 20.1486 373.391 23.7786 368.062C27.4087 362.732 31.5112 356.928 31.5112 356.928L33.9616 300.045L46.5656 299L61 309.685" fill="#F57D79"/>
<path d="M33.6348 294.24C33.6348 294.24 29.3876 314.644 30.0753 334.523C32.6704 335.232 35.3134 335.885 37.999 335.809C40.6859 335.732 43.4739 334.747 45.1299 332.61C45.6553 334.994 46.7048 337.216 48.6083 338.724C50.5117 340.232 52.9392 341.049 55.3588 340.998C59.3944 334.352 62.5894 327.331 65.1234 319.966C66.3232 316.474 67.3593 312.792 66.8805 309.128C66.0159 302.506 60.2537 297.395 53.9661 295.318C47.6785 293.242 40.2496 294.24 33.6348 294.24" fill="#339D81"/>
<path d="M7 416.072L8.96654 408L24 413.152L19.06 419.76C19.06 419.76 12.9833 428.134 10.8424 426.87C8.70154 425.606 7 416.072 7 416.072" fill="#FFFFF7"/>
<path d="M32.58 440.234C31.2746 442.243 19.4401 439.795 16.8146 438.649C14.1877 437.505 11.4644 433.977 10.0052 432.16C8.5406 430.353 -0.828802 428.854 -1.88144 426.175C-2.1864 425.388 -1.87474 424.346 -1.27018 423.218C0.249257 420.467 3.63588 417.235 4.30866 416.531C5.25964 415.538 6.87403 416.243 6.87403 416.243C6.87403 416.243 6.88475 416.249 6.88876 416.266C7.06531 416.759 9.52101 423.087 11.4751 424.162C11.6236 424.241 11.7828 424.284 11.9379 424.308C12.3285 424.74 12.6803 425.073 12.9879 425.241C14.7414 426.218 19.0576 422.297 20.5088 421.533C21.2619 422.487 21.9962 423.717 22.6716 425.032C22.6796 425.068 22.6943 425.092 22.7077 425.116C23.9048 427.904 25.3734 431.502 26.0328 433.138C26.0837 433.247 26.1238 433.349 26.1519 433.443C26.2027 433.551 26.2428 433.653 26.2669 433.729C26.9878 435.572 30.0842 436.216 30.9563 436.702C31.3321 436.929 31.9621 437.243 32.4182 437.719C32.9934 438.316 33.2996 439.12 32.58 440.234" fill="#FFFFF7"/>
<path d="M33 437.725C30.0127 438.745 20.2083 436.675 17.8392 435.649C15.1894 434.503 12.4396 430.976 10.9682 429.158C9.50088 427.357 0.171716 425.878 -1 423.22C0.533489 420.468 3.95144 417.235 4.63044 416.531C5.59022 415.538 7.21954 416.243 7.21954 416.243C7.21954 416.243 7.23036 416.249 7.23441 416.266C7.41259 416.759 9.891 423.088 11.8632 424.164C12.0131 424.243 12.1737 424.286 12.3303 424.31C14.5023 424.483 18.2861 419.587 18.8922 419.807C19.5928 420.073 20.3015 420.692 20.9805 421.534C21.7405 422.489 22.4816 423.719 23.1633 425.035C23.1714 425.07 23.1862 425.095 23.1997 425.118C24.7372 428.117 25.9859 431.552 26.5556 433.142C26.6069 433.252 26.6473 433.353 26.6757 433.447C26.727 433.556 26.7675 433.657 26.7918 433.734C27.5194 435.577 30.6444 436.221 31.5245 436.708C31.9039 436.935 32.5397 437.249 33 437.725" fill="#214257"/>
<path d="M36.0306 293C36.0306 293 32 300.462 32 305.202C32 309.248 33.0468 318.626 39.2288 325.452C45.4122 332.278 67.3353 354.404 67.3353 354.404C67.3353 354.404 59.1899 361.676 57.5001 368.698C55.8116 375.721 49.2626 403.934 49.2626 403.934L56.3021 408C56.3021 408 84.9451 358.589 83.976 351.544C83.0054 344.5 65.9808 303.079 65.9808 303.079L36.0306 293Z" fill="#F8A497"/>
<path d="M74 319.013C72.0874 321.971 69.0142 324.129 65.62 324.904C62.2139 325.677 58.4629 325.14 55.4892 323.305C56.1179 325.465 55.785 327.886 54.5873 329.783C52.7489 332.678 49.1585 333.94 45.9115 335C45.2696 334.514 44.6541 334.015 44.036 333.491C44.036 333.491 44.036 333.491 44.0241 333.491C38.582 328.973 33.9663 323.331 31.5974 316.653C28.9566 309.201 29.4619 300.377 34.0764 294L36.5951 294.101L43.2588 294.349L64.7313 295.172L72.9004 316.179L74 319.013" fill="#3FBCA1"/>
<path d="M74 318.973C72.1081 321.938 69.0681 324.102 65.7107 324.879C62.3415 325.654 58.6311 325.116 55.6896 323.276C56.3115 325.442 55.9821 327.869 54.7974 329.77C52.979 332.672 49.4274 333.938 46.2156 335C45.5805 334.513 44.9718 334.013 44.3604 333.487C45.2276 333.275 46.0699 333.01 46.8755 332.648C49.0482 331.711 51.0254 330.02 51.7942 327.742C52.5394 325.567 52.1117 323.164 51.5266 320.938C48.9262 310.94 43.4945 301.945 37 294L43.5915 294.249C46.8388 300.318 50.2447 306.224 54.0036 312.029C55.969 315.057 58.2401 318.235 61.6343 319.311C64.1967 320.123 67.0293 319.561 69.446 318.36C70.6793 317.747 71.8142 316.971 72.9123 316.133L74 318.973" fill="#FFFFF7"/>
<path d="M48.5852 402.713L50.4077 395L62 400.863L58.5488 406.065L53.656 411H49.0631L48 405.411L48.5852 402.713" fill="#FFFFF7"/>
<path d="M70.5973 425.344C69.3878 427.201 58.8604 424.641 56.537 423.509C54.2136 422.375 51.8539 419.004 50.5905 417.266C49.3204 415.538 40.975 413.923 40.0914 411.386C39.8369 410.641 40.1372 409.669 40.7029 408.624C42.1199 406.075 45.2177 403.116 45.8346 402.47C46.706 401.557 48.1337 402.256 48.1337 402.256C48.1337 402.256 48.1432 402.262 48.1459 402.279C48.294 402.745 50.3534 408.737 52.0761 409.79C52.2068 409.868 52.3482 409.912 52.4869 409.938C52.8277 410.354 53.1334 410.672 53.4055 410.837C54.9517 411.794 58.8955 408.208 60.21 407.523C60.8606 408.435 61.4909 409.606 62.0674 410.856C62.0728 410.888 62.0863 410.912 62.0984 410.935C63.1086 413.577 64.3436 416.987 64.8972 418.538C64.9403 418.641 64.974 418.738 64.9969 418.827C65.04 418.929 65.0737 419.026 65.0952 419.097C65.6986 420.845 68.453 421.518 69.2221 421.992C69.5535 422.214 70.1097 422.523 70.507 422.978C71.0081 423.553 71.2654 424.314 70.5973 425.344" fill="#FFFFF7"/>
<path d="M70 422.79C67.4038 423.676 58.9979 421.539 56.977 420.532C54.7163 419.408 52.4202 416.068 51.1909 414.346C49.9629 412.639 41.9541 411.062 41 408.564C42.3787 406.038 45.393 403.106 45.9932 402.466C46.8412 401.561 48.2303 402.253 48.2303 402.253C48.2303 402.253 48.2395 402.26 48.2421 402.276C48.3863 402.738 50.3901 408.677 52.0663 409.72C52.1935 409.798 52.3311 409.841 52.4661 409.867C54.3349 410.075 57.6978 405.605 58.2155 405.821C58.8144 406.083 59.412 406.675 59.9808 407.473C60.6138 408.377 61.2271 409.537 61.7881 410.776C61.7933 410.809 61.8064 410.832 61.8182 410.855C63.0803 413.676 64.0841 416.897 64.5415 418.389C64.5835 418.491 64.6162 418.587 64.6385 418.675C64.6805 418.777 64.7132 418.873 64.7342 418.944C65.3213 420.676 68.0014 421.342 68.7497 421.813C69.0721 422.032 69.6134 422.338 70 422.79" fill="#214257"/>
<path d="M63.7608 410.289C63.2379 409.881 62.9158 409.961 62.3557 410.187C61.907 410.368 61.4515 410.538 61.0083 410.741C60.3064 411.065 59.1669 411.374 59.0086 412.361C58.9481 412.737 59.2151 412.983 59.5137 412.997C60.2418 413.032 61.0826 412.715 61.7818 412.501C62.4837 412.286 63.6618 412.154 63.9398 411.282C64.0389 410.967 64.0388 410.503 63.7608 410.289" fill="#FFFFF7"/>
<path d="M65.7137 414.309C64.9358 413.847 64.0344 414.012 63.1402 414.113C62.2662 414.211 61.2859 414.302 60.4821 414.638C59.8463 414.903 59.7947 415.836 60.597 415.948C61.4395 416.063 62.3178 415.958 63.1632 415.911C63.9296 415.87 65.0247 415.963 65.6319 415.499C65.9864 415.228 66.206 414.602 65.7137 414.309" fill="#FFFFF7"/>
<path d="M78.4524 262.223C78.4524 262.223 76.9548 260.841 74.6872 258.776L70 276.397C74.3128 279.014 77.8821 280.565 79.4077 279.808C84.4319 277.312 104 245.19 104 245.19L96.7347 239L78.4524 262.223" fill="#F57D79"/>
<path d="M96.7318 261.616C96.7318 261.616 91.8491 252.421 93.2539 250.576C94.6587 248.731 97.7051 253.924 97.7051 253.924C97.7051 253.924 101.178 247.257 102.31 247.069C103.443 246.883 106.508 249.182 107.506 250.831C107.506 250.831 111.337 253.382 111.865 254.975C112.394 256.568 111.237 260.373 110.671 261.835C110.105 263.297 104.155 268.059 104.155 268.059L96.7318 261.616" fill="#F57D79"/>
<path d="M73 211.216L70.818 223L60 220.751L63.4152 204.914L66.9476 205.673L70.0237 202L73 211.216" fill="#F8A497"/>
<path d="M73 211.162L72.2905 215C71.0519 214.07 69.9876 212.863 69.1619 211.507C68.3276 210.123 67.398 207.852 67 205.652L70.0494 202L73 211.162" fill="#F57D79"/>
<path d="M87.9224 201.914C87.7367 201.347 87.441 200.815 87.1466 200.288C86.5393 199.198 85.9306 198.109 85.3232 197.02C85.2092 196.815 85.0978 196.605 84.9758 196.4C84.0979 190.659 82.5888 185.344 81.459 184.181C79.1118 181.768 72.3473 183.8 72.3473 183.8C72.3473 183.8 67.4911 189.129 66.7617 196.792C66.1464 196.048 65.3375 195.521 64.3999 195.983C62.2384 197.051 61.1271 200.312 62.8312 202.534C63.8589 203.876 65.9899 204.295 67.5203 204.419C67.8372 205.473 68.0918 206.636 68.7721 207.634C75.8509 218.021 83.5953 212.819 84.3419 211.774C85.4161 210.268 85.7701 207.263 85.6773 203.764C86.2064 203.632 86.7236 203.462 87.1983 203.218C87.5564 203.035 87.9211 202.783 87.9887 202.429C88.0218 202.255 87.9768 202.08 87.9224 201.914" fill="#F8A497"/>
<path d="M66.9886 198.338C65.8304 197.413 63.8148 198.507 64.0137 200.172C64.0258 200.273 64.1483 200.28 64.1701 200.181C64.5097 198.693 66.227 198.108 67.0249 199.448C67.1741 199.698 67.2699 199.946 67.3294 200.192C66.9631 199.991 66.3798 199.979 66.1251 200.061C65.4459 200.28 64.9439 201.19 65.3004 201.93C65.446 202.234 65.7904 201.995 65.7989 201.729C65.8146 201.259 65.8935 200.865 66.3216 200.669C66.4853 200.594 67.3475 200.504 67.35 200.758C67.35 200.805 67.3657 200.839 67.3888 200.862C67.3572 201.448 67.1183 202.014 66.7363 202.543C66.569 202.776 66.8358 203.141 67.0589 202.944C68.3359 201.822 68.3141 199.396 66.9886 198.338" fill="#F57D79"/>
<path d="M56.8017 216C56.8017 216 71.4186 219.086 72.8903 221.695C74.3621 224.306 84.4613 245.19 82.8203 250.393C81.1793 255.596 75.321 267.507 75.321 267.507C75.321 267.507 66.2358 278.111 66.1781 298.394C66.1781 298.394 42.825 303.627 33 295.199C33 295.199 47.1944 263.623 47.239 259.653C47.2836 255.683 43.3707 238.332 44.4083 233.011C45.4472 227.689 49.6474 218.458 56.8017 216" fill="#E128B9"/>
<path d="M67.8186 284C67.8186 284 31.3355 273.383 27.596 269.183C23.8565 264.985 38.8346 233.09 41.4418 229.114C44.049 225.137 48.7274 218.782 53.606 220.203C62.4417 222.779 61.0595 228.99 58.815 235.204C56.5705 241.419 44.5554 263.758 44.5554 263.758L72 275.417L67.8186 284" fill="#F8A497"/>
<path d="M72.1038 275.261C72.1038 275.261 79.3808 268.182 81.4308 269.078C83.4807 269.975 79.4428 274.254 79.4428 274.254C79.4428 274.254 86.4574 275.937 86.9109 276.99C87.3644 278.043 86.0026 281.604 84.7291 282.995C84.7291 282.995 83.3252 287.363 81.9871 288.281C80.6477 289.199 76.8497 289.042 75.36 288.863C73.8704 288.682 68 284.11 68 284.11L72.1038 275.261" fill="#F8A497"/>
<path d="M57.1141 216C57.1141 216 48.1564 217.26 44.9443 220.133C41.7337 223.003 36 234.839 36 234.839L56.6422 244L64.8975 234.162C64.8975 234.162 65.1281 224.698 64.8975 224.359C64.6683 224.019 57.1141 216 57.1141 216Z" fill="#E128B9"/>
<path d="M59.7731 220.103C59.449 219.789 58.9641 220.263 59.2722 220.585C64.264 225.811 61.6053 236.123 58.1833 241.419C57.4051 242.623 59.3056 243.636 60.132 242.514C64.8359 236.123 65.8524 225.97 59.7731 220.103" fill="#DA2C39"/>
<path d="M79.118 181.563C75.0336 178.937 69.3595 178.323 64.6772 179.748C59.5071 181.323 55.5953 185.449 55.155 190.497C54.9743 192.573 54.8493 194.331 55.386 196.4C55.9227 198.466 56.7719 200.46 57.7407 202.379C58.8943 204.663 60.215 206.915 61.7463 209C61.7463 209 67.392 205.248 68.0279 204.228C68.0279 204.228 60.6186 202.829 63.3103 197.268C63.3103 197.268 65.7207 194.855 68.3458 197.872C68.3458 197.872 74.1273 189.142 73.967 186.411C73.967 186.411 80.023 184.699 83 186.332C83 185.419 82.2445 184.376 81.8478 183.915C81.0651 183.006 80.1412 182.221 79.118 181.563" fill="#1D495F"/>
<path d="M54 192.275C54 192.275 80.8779 182.647 82.0538 183.01C83.2298 183.373 84.4072 187.234 83.8634 187.637C83.3209 188.04 54 195 54 195V192.275Z" fill="#FFFFF7"/>
<path d="M41.3927 201.917C39.4804 203.939 38.0098 206.375 36.0036 208.301C32.3311 211.826 26.913 213.34 22 212.213C26.2967 216.187 31.937 218.609 37.7175 218.962C39.8824 219.094 42.1504 218.919 44.0283 217.812C45.9777 216.66 47.2922 214.625 48.1306 212.487C48.9691 210.35 49.3976 208.072 50.0151 205.858C50.6327 203.644 51.4738 201.429 52.9841 199.723C54.4943 198.016 56.7888 196.891 59 197.315C57.6048 197.048 56.3802 196.079 54.981 196.011C53.3213 195.932 51.5545 196.281 49.9649 196.737C46.7328 197.661 43.7295 199.445 41.3927 201.917" fill="#1D495F"/>
<path d="M184.799 445.193L181.785 451.433L171.609 444.889L170.947 442.871C170.817 442.483 170.672 442.049 170.515 441.575L170.183 440.58C170.009 440.047 169.823 439.484 169.62 438.893L169 437.005C168.771 436.328 168.54 435.621 168.309 434.901H168.295C165.167 425.475 160.756 412.343 159.401 408.956C157.239 403.565 157.571 391.717 157.571 391.717L124.304 362.961L114.531 341.283L141.384 329.335C141.384 329.335 168.079 373.139 173.095 381.571L182.448 432.393L184.799 445.193" fill="#F57D79"/>
<path d="M184.799 445.193L181.785 451.433L171.609 444.889L170.947 442.871L170.515 441.575L170.183 440.58L169.62 438.893L169 437.005L168.295 434.901H168.309L182.448 432.393L184.799 445.193" fill="#FFFFF7"/>
<path d="M173.095 381.571L157.571 391.717L124.304 362.961L114.531 341.283L141.384 329.335C141.384 329.335 168.079 373.139 173.095 381.571Z" fill="#6D117C"/>
<path d="M210.619 450.875C210.765 453.581 198.468 458.839 195.34 459.444C192.213 460.049 187.427 458.495 184.912 457.728C182.396 456.976 172.948 461.548 170.229 459.72C169.436 459.18 169.028 458.008 168.831 456.572C168.387 453.036 169.311 447.864 169.453 446.779C169.656 445.244 171.579 444.873 171.579 444.873C171.579 444.873 171.593 444.873 171.608 444.887C172.093 445.235 178.485 449.571 180.959 449.329C181.145 449.309 181.317 449.248 181.473 449.171C182.112 449.327 182.648 449.413 183.036 449.373C185.265 449.167 186.573 442.757 187.379 441.121C188.688 441.531 190.164 442.211 191.641 443.007C191.671 443.035 191.7 443.048 191.729 443.063C194.651 444.9 198.351 447.32 200.025 448.427C200.141 448.496 200.245 448.565 200.333 448.636C200.451 448.704 200.553 448.773 200.627 448.829C202.493 450.089 205.715 448.717 206.821 448.615C207.311 448.587 208.087 448.479 208.812 448.632C209.725 448.823 210.533 449.377 210.619 450.875" fill="#FFFFF7"/>
<path d="M208.812 448.632C206.813 451.471 196.68 455.729 193.883 456.268C190.756 456.873 185.969 455.319 183.453 454.552C180.952 453.8 171.633 458.311 168.831 456.572C168.387 453.036 169.311 447.864 169.453 446.779C169.656 445.244 171.579 444.873 171.579 444.873C171.579 444.873 171.593 444.873 171.608 444.887C172.093 445.235 178.485 449.571 180.959 449.329C181.145 449.309 181.317 449.248 181.473 449.171C183.531 447.961 183.685 441.007 184.372 440.828C185.173 440.635 186.216 440.763 187.379 441.121C188.688 441.531 190.164 442.211 191.641 443.007C191.671 443.035 191.7 443.048 191.729 443.063C195.083 444.887 198.465 447.303 200.025 448.427C200.141 448.496 200.245 448.565 200.333 448.636C200.451 448.704 200.553 448.773 200.627 448.829C202.493 450.089 205.715 448.717 206.821 448.615C207.311 448.587 208.087 448.479 208.812 448.632" fill="#1E1E1E"/>
<path d="M192.668 441.591C191.904 441.623 191.64 441.921 191.241 442.517C190.919 442.996 190.584 443.468 190.281 443.959C189.804 444.739 188.892 445.823 189.36 446.773C189.539 447.139 189.952 447.152 190.252 446.949C190.98 446.455 191.597 445.579 192.141 444.892C192.687 444.205 193.748 443.244 193.467 442.304C193.365 441.965 193.073 441.575 192.668 441.591" fill="#FFFFF7"/>
<path d="M197.221 443.2C196.143 443.261 195.431 444.055 194.675 444.776C193.936 445.48 193.093 446.253 192.603 447.156C192.215 447.868 192.88 448.864 193.712 448.424C194.585 447.963 195.321 447.247 196.073 446.613C196.753 446.04 197.844 445.38 198.056 444.479C198.177 443.957 197.905 443.161 197.221 443.2Z" fill="#FFFFF7"/>
<path d="M141.384 329.335C141.384 329.335 136.036 357.615 112.773 379.479C99.5986 391.861 77.8773 418.757 75.3107 420.385C72.76 422 40.4013 428.197 27.0107 430.721C23.4787 431.384 21.2586 431.788 21.2586 431.788C21.2586 431.788 11.616 432.047 10.4493 427.823C9.68533 425.013 17.728 419.088 18.204 418.728L18.232 418.713L20.9853 417.604L21.908 417.229L22.8306 416.868C31.3346 413.439 49.0347 406.348 52.912 404.964C56.876 403.551 68.9973 402.499 68.9973 402.499C76.204 386.587 89.9413 363.077 89.9413 363.077C89.9413 363.077 91.252 348.447 92.3906 343.517C93.544 338.601 104.801 326.148 104.801 326.148L141.384 329.335" fill="#F8A497"/>
<path d="M27.0107 430.721C23.4787 431.384 21.2586 431.788 21.2586 431.788C21.2586 431.788 11.616 432.047 10.4493 427.823C9.68533 425.013 17.728 419.088 18.204 418.728L18.232 418.713L20.9853 417.604L21.908 417.229L22.8306 416.868L27.0107 430.721" fill="#FFFFF7"/>
<path d="M9.17065 457.156C6.46132 457.088 2.19198 444.413 1.83465 441.249C1.47732 438.085 3.40532 433.435 4.36798 430.987C5.31732 428.539 1.50399 418.759 3.54132 416.195C4.14266 415.447 5.34264 415.133 6.79064 415.048C10.3493 414.885 15.4333 416.215 16.504 416.443C18.0173 416.765 18.2346 418.711 18.2346 418.711C18.2346 418.711 18.2346 418.725 18.22 418.74C17.8346 419.196 13.0066 425.225 13.0533 427.711C13.0573 427.899 13.1067 428.075 13.1693 428.236C12.9653 428.861 12.836 429.388 12.8453 429.777C12.8747 432.017 19.1613 433.827 20.7293 434.759C20.216 436.031 19.4213 437.448 18.512 438.86C18.4813 438.887 18.4667 438.915 18.4493 438.943C16.388 441.708 13.6827 445.207 12.4467 446.788C12.368 446.9 12.292 446.997 12.2147 447.08C12.1373 447.192 12.06 447.288 11.9986 447.357C10.5946 449.117 11.7093 452.436 11.724 453.549C11.7133 454.039 11.7587 454.82 11.5493 455.531C11.2867 456.427 10.6707 457.19 9.17065 457.156" fill="#FFFFF7"/>
<path d="M11.5493 455.531C8.87868 453.316 5.43201 442.876 5.11468 440.047C4.75868 436.881 6.68668 432.232 7.64935 429.785C8.59735 427.352 4.83466 417.704 6.79066 415.048C10.3493 414.885 15.4333 416.215 16.504 416.443C18.0173 416.765 18.2347 418.711 18.2347 418.711C18.2347 418.711 18.2347 418.725 18.22 418.74C17.8347 419.196 13.0067 425.225 13.0533 427.711C13.0573 427.899 13.1067 428.075 13.1693 428.236C14.2147 430.383 21.1347 431.085 21.2573 431.784C21.3893 432.599 21.1773 433.628 20.7293 434.759C20.216 436.031 19.4213 437.448 18.512 438.86C18.4813 438.887 18.4667 438.915 18.4493 438.943C16.3653 442.141 13.6907 445.323 12.4467 446.788C12.368 446.9 12.292 446.997 12.2147 447.08C12.1373 447.192 12.06 447.288 11.9987 447.357C10.5947 449.117 11.7093 452.436 11.724 453.549C11.7133 454.039 11.7587 454.82 11.5493 455.531" fill="#1E1E1E"/>
<path d="M19.8427 439.995C19.872 439.231 19.5933 438.944 19.032 438.497C18.58 438.14 18.1373 437.767 17.6707 437.428C16.9307 436.891 15.9213 435.896 14.9373 436.287C14.56 436.436 14.512 436.848 14.692 437.163C15.128 437.928 15.9533 438.612 16.5933 439.208C17.2347 439.807 18.1107 440.939 19.0693 440.735C19.4147 440.66 19.828 440.4 19.8427 439.995" fill="#FFFFF7"/>
<path d="M17.8787 444.405C17.9027 443.327 17.168 442.553 16.5093 441.744C15.864 440.951 15.1613 440.051 14.3 439.488C13.62 439.045 12.5747 439.632 12.948 440.495C13.34 441.403 13.996 442.193 14.568 442.992C15.0853 443.716 15.6573 444.856 16.5373 445.137C17.0493 445.3 17.864 445.089 17.8787 444.405" fill="#FFFFF7"/>
<path d="M78.576 306.295C78.576 306.295 69.0253 270.159 70.596 264.179C72.1667 258.197 110.943 250.216 116.18 250.125C121.416 250.035 126.744 248.752 128.415 254.051C131.44 263.647 124.903 266.227 117.833 268.028C110.765 269.827 84.7147 272.536 84.7147 272.536L88.9973 304.788L78.576 306.295" fill="#F57D79"/>
<path d="M88.9973 304.788C88.9973 304.788 99.8133 307.269 100.289 309.699C100.767 312.131 94.452 310.963 94.452 310.963C94.452 310.963 97.3133 318.447 96.6573 319.495C96.0026 320.544 91.988 321.42 89.9613 321.075C89.9613 321.075 85.2026 322.392 83.5546 321.705C81.9053 321.02 79.6866 317.419 78.92 315.935C78.1546 314.452 78.576 306.295 78.576 306.295L88.9973 304.788" fill="#F57D79"/>
<path d="M131.073 236.691L129.459 249.924L116.581 248.353L117.78 238.524L123.527 231.064L126.843 226.736L131.073 236.691" fill="#F8A497"/>
<path d="M131.073 236.691L130.544 241.025C129.003 240.096 127.645 238.841 126.557 237.403C125.459 235.932 124.175 233.481 123.527 231.064L126.843 226.736L131.073 236.691Z" fill="#F57D79"/>
<path d="M148.863 228.437C148.708 227.807 148.428 227.203 148.149 226.603C147.575 225.365 147 224.128 146.425 222.891C146.316 222.656 146.212 222.419 146.095 222.185C145.629 215.869 144.431 209.957 143.285 208.595C140.908 205.763 133.271 207.372 133.271 207.372C133.271 207.372 127.448 212.732 125.973 220.996C125.36 220.132 124.515 219.488 123.441 219.907C120.963 220.875 119.453 224.321 121.137 226.887C122.153 228.435 124.467 229.081 126.144 229.352C126.401 230.525 126.581 231.811 127.244 232.956C134.143 244.872 143.139 239.905 144.052 238.836C145.369 237.295 146.023 234.06 146.225 230.251C146.82 230.153 147.405 230.015 147.952 229.791C148.361 229.624 148.787 229.383 148.891 229.003C148.943 228.819 148.908 228.624 148.863 228.437Z" fill="#F8A497"/>
<path d="M125.809 222.435C124.493 221.335 121.969 222.308 122.065 224.107C122.071 224.216 122.217 224.235 122.253 224.132C122.789 222.575 124.911 222.115 125.759 223.625C125.917 223.907 126.011 224.181 126.061 224.451C125.637 224.2 124.935 224.131 124.621 224.193C123.783 224.361 123.099 225.287 123.465 226.113C123.615 226.452 124.051 226.228 124.084 225.945C124.143 225.445 124.272 225.031 124.805 224.863C125.009 224.799 126.056 224.785 126.036 225.059C126.033 225.108 126.049 225.145 126.076 225.173C125.988 225.796 125.649 226.379 125.144 226.908C124.921 227.14 125.212 227.556 125.499 227.367C127.136 226.291 127.317 223.695 125.809 222.435" fill="#F57D79"/>
<path d="M106.339 310.132L104.801 326.144C104.801 326.144 126.157 340.741 129.172 340.079C132.188 339.417 141.377 329.327 141.377 329.327V314.368L106.339 310.132Z" fill="#F8A497"/>
<path d="M154.631 283.268C153.189 289.135 142.999 301.212 142.999 301.212C142.999 301.212 143.704 306.171 144.627 313.855C131.323 316.304 117.284 314.819 104.831 309.516C107.381 302.741 109.443 296.643 109.443 294.727V294.568C109.125 290.172 102.972 271.275 103.692 265.308C104.427 259.356 108.492 248.833 116.636 245.591C116.636 245.591 134.004 247.94 135.964 250.721C137.924 253.503 156.072 277.387 154.631 283.268" fill="#144761"/>
<path d="M146.665 213.883C146.745 212.747 146.735 211.195 146.388 210.111C145.915 208.628 145.383 207.152 144.577 205.821C142.779 202.853 139.696 200.804 136.381 199.772C133.067 198.74 129.524 198.653 126.067 198.963C118.591 199.632 111.688 203.111 105.323 206.873C102.32 208.649 99.4213 210.861 96.2227 212.211C92.64 213.723 89.168 215.187 85.3333 215.965C80.5093 216.945 75.1986 217.587 71.152 220.64C66.8586 223.879 65.388 229.901 66.176 235.092C66.9173 239.984 69.776 244.344 73.784 247.197C80.948 252.301 90.9493 253.097 98.832 249.195C102.053 247.6 104.931 245.292 108.332 244.128C111.773 242.952 116.407 244.175 117.739 240.792C119.092 237.356 121.777 234.475 124.275 231.755C124.879 231.099 125.972 229.561 126.576 228.904C126.473 229.015 125.64 228.827 125.488 228.804C125.107 228.747 124.727 228.667 124.356 228.561C123.736 228.388 123.141 228.144 122.596 227.803C121.551 227.151 120.569 226.124 120.416 224.851C120.124 222.435 123.288 219.601 125.973 220.996C128.061 222.08 128.468 225.052 128.468 225.052C128.468 225.052 131.891 218.476 131.711 215.324C133.961 215.123 136.176 214.503 138.203 213.501C137.553 214.861 136.615 216.083 135.469 217.06C139.453 216.66 143.488 216.321 146.665 213.883" fill="#1D495F"/>
<path d="M173.157 269.247C173.157 269.247 168.223 277.256 164.404 284.315C157.043 276.763 150.579 270.624 143.372 262.924C140.953 260.34 138.479 257.711 135.376 256.007C132.275 254.301 128.381 253.644 125.187 255.169C122.416 256.492 121.016 259.985 121.464 263.024C121.912 266.06 123.685 268.737 125.667 271.083C128.795 274.785 132.528 277.92 136.24 281.035C136.24 281.035 161.016 305.276 166.541 305.141C172.065 305.004 181.528 273.445 181.528 273.445L173.157 269.247" fill="#F8A497"/>
<path d="M173.157 269.247C173.157 269.247 166.524 261.935 167.412 259.92C168.3 257.904 172.315 261.967 172.315 261.967C172.315 261.967 174.032 255.049 175.044 254.616C176.056 254.185 179.431 255.587 180.735 256.868C180.735 256.868 184.877 258.327 185.732 259.665C186.585 261.005 186.373 264.763 186.179 266.235C185.984 267.705 181.528 273.445 181.528 273.445L173.157 269.247" fill="#F8A497"/>
<path d="M141.384 329.335C141.384 329.335 136.036 357.615 112.773 379.479C99.5986 391.861 77.8773 418.757 75.3106 420.385C66.36 409.633 68.9973 402.499 68.9973 402.499C76.204 386.587 89.9413 363.077 89.9413 363.077C89.9413 363.077 91.252 348.447 92.3906 343.517C93.544 338.601 104.801 326.148 104.801 326.148L141.384 329.335" fill="#6D117C"/>
</g>
</svg>
