<svg width="236" height="282" viewBox="0 0 236 282" fill="none" xmlns="http://www.w3.org/2000/svg">
<g clip-path="url(#clip0_4_2)">
<mask id="mask0_4_2" style="mask-type:alpha" maskUnits="userSpaceOnUse" x="-2" y="-1" width="238" height="283">
<path d="M236 -1H-2V282H236V-1Z" fill="#D9D9D9"/>
</mask>
<g mask="url(#mask0_4_2)">
<g filter="url(#filter0_d_4_2)">
<path d="M167.618 14.5323C208.722 27.0221 228.861 43.1651 233.479 78.2124C238.097 113.26 170.49 122.46 185.063 179.206C199.637 235.952 195.867 265.861 156.889 277.063C117.912 288.265 -10.6674 294.603 6.04147 210.044C22.7504 125.485 55.3662 98.1877 37.0922 59.94C18.8183 21.6925 24.5618 5.94312 53.1102 1.83077C81.6586 -2.28158 148.192 8.62995 167.618 14.5323Z" fill="#DCA006"/>
<mask id="mask1_4_2" style="mask-type:alpha" maskUnits="userSpaceOnUse" x="4" y="0" width="230" height="284">
<path d="M167.618 14.5323C208.722 27.0221 228.861 43.1651 233.479 78.2124C238.097 113.26 170.49 122.46 185.063 179.206C199.637 235.952 195.867 265.861 156.889 277.063C117.912 288.265 -10.6674 294.603 6.04147 210.044C22.7504 125.485 55.3662 98.1877 37.0922 59.94C18.8183 21.6925 24.5618 5.94312 53.1102 1.83077C81.6586 -2.28158 148.192 8.62995 167.618 14.5323Z" fill="black"/>
</mask>
<g mask="url(#mask1_4_2)">
<path d="M156.889 277.063L156.613 276.102L156.889 277.063ZM6.04147 210.044L7.0225 210.238L6.04147 210.044ZM37.0922 59.9399L37.9945 59.5088L37.0922 59.9399ZM167.909 13.5754C188.512 19.8357 203.995 27.0483 214.911 37.1802C225.862 47.3443 232.137 60.3711 234.47 78.0816L232.488 78.3429C230.203 61.0061 224.1 48.4378 213.551 38.6461C202.967 28.8223 187.829 21.7185 167.327 15.489L167.909 13.5754ZM234.47 78.0816C235.675 87.219 232.145 94.6352 226.587 101.431C221.073 108.173 213.4 114.484 206.227 121.297C198.998 128.163 192.176 135.618 188.042 144.824C183.922 153.997 182.442 164.979 186.032 178.957L184.095 179.455C180.398 165.06 181.903 153.612 186.217 144.005C190.516 134.431 197.575 126.756 204.849 119.847C212.179 112.886 219.63 106.779 225.039 100.165C230.403 93.6057 233.593 86.7291 232.488 78.3429L234.47 78.0816ZM186.032 178.957C193.321 207.34 196.087 229.221 192.028 245.456C189.99 253.606 186.231 260.344 180.469 265.756C174.716 271.159 167.016 275.193 157.166 278.024L156.613 276.102C166.251 273.332 173.639 269.426 179.1 264.298C184.552 259.178 188.132 252.791 190.088 244.971C194.014 229.265 191.379 207.818 184.095 179.455L186.032 178.957ZM157.166 278.024C137.54 283.664 95.4816 288.066 60.3707 280.441C42.813 276.629 26.8599 269.78 16.3479 258.445C5.78775 247.057 0.829828 231.26 5.06044 209.851L7.0225 210.238C2.89866 231.108 7.74729 246.229 17.8144 257.085C27.9297 267.993 43.4245 274.715 60.7952 278.487C95.541 286.032 137.261 281.663 156.613 276.102L157.166 278.024ZM5.06044 209.851C13.4338 167.475 25.8056 139.408 33.7442 117.288C41.6863 95.1574 45.1431 79.1103 36.1899 60.371L37.9945 59.5088C47.3152 79.0172 43.6012 95.7427 35.6266 117.963C27.6486 140.193 15.3581 168.054 7.0225 210.238L5.06044 209.851ZM36.1899 60.371C31.6044 50.7736 28.5042 42.5443 26.8963 35.5263C25.2894 28.5125 25.1576 22.6419 26.5836 17.802C29.4759 7.98545 38.5827 2.91307 52.9676 0.840939L53.2528 2.82051C39.0893 4.86073 31.0501 9.71922 28.5021 18.3673C27.2079 22.7597 27.2822 28.2548 28.8458 35.0797C30.4084 41.9002 33.443 49.9825 37.9945 59.5088L36.1899 60.371ZM52.9676 0.840939C67.3924 -1.23693 91.2867 0.483065 113.914 3.43437C136.562 6.38824 158.116 10.6 167.909 13.5754L167.327 15.489C157.694 12.562 136.269 8.36695 113.656 5.41757C91.0231 2.46562 67.3763 0.786032 53.2528 2.82051L52.9676 0.840939Z" fill="black"/>
</g>
</g>
<path d="M139.715 43.2963C139.653 46.9456 136.651 49.8496 132.944 49.7869C129.296 49.7269 126.391 46.7243 126.452 43.0749C126.513 39.3683 129.517 36.4629 133.165 36.5243C136.872 36.5856 139.777 39.5896 139.715 43.2963ZM122.605 13.1016C119.903 11.7402 119.073 8.22697 120.953 5.85497C123.179 3.04964 127.139 0.157594 133.944 0.270927C142.632 0.414927 150.299 6.22027 150.161 14.3869C150.068 20.0629 145.781 23.4669 140.181 25.7482C138.197 26.5856 138.113 28.2056 138.081 30.1176C138.051 31.9096 136.575 33.3362 134.784 33.3069L131.713 33.2562C129.921 33.2269 128.495 31.7496 128.525 29.9576L128.576 26.8883C128.619 24.3403 128.768 22.2562 131.403 20.6202C134.973 18.4202 138.277 18.3029 138.347 14.1909C138.393 11.4096 136.34 9.40561 133.735 9.36161C131.371 9.32295 129.679 10.4096 128.531 11.8109C127.088 13.5723 124.637 14.1242 122.605 13.1016Z" fill="#F51F1F"/>
<path d="M178.915 72.3188C177.331 75.6055 173.387 76.9828 170.047 75.3734C166.76 73.7881 165.383 69.8441 166.968 66.5561C168.577 63.2174 172.523 61.8387 175.808 63.4241C179.148 65.0347 180.527 68.9788 178.915 72.3188ZM176.041 37.7321C174.159 35.3628 174.877 31.8254 177.58 30.4614C180.776 28.8467 185.583 27.8814 191.715 30.8361C199.541 34.6094 204.068 43.0947 200.521 50.4521C198.055 55.5654 192.736 56.8601 186.695 56.5828C184.544 56.5108 183.788 57.9468 182.957 59.6681C182.18 61.2828 180.24 61.9601 178.627 61.1814L175.86 59.8481C174.248 59.0708 173.569 57.1307 174.348 55.5174L175.681 52.7521C176.788 50.4561 177.799 48.6281 180.876 48.2468C185.04 47.7468 188.089 49.0241 189.875 45.3201C191.083 42.8147 190.06 40.1361 187.712 39.0028C185.584 37.9774 183.591 38.2547 181.963 39.0454C179.915 40.0387 177.459 39.5134 176.041 37.7321Z" fill="#F51F1F"/>
<path d="M98.78 52.2534C100.955 55.1827 100.343 59.3161 97.364 61.5254C94.4346 63.7001 90.3013 63.0881 88.128 60.1574C85.9173 57.1801 86.5293 53.0468 89.4613 50.8721C92.4373 48.6641 96.5706 49.2761 98.78 52.2534ZM66.8173 38.7295C63.8453 39.2975 61.0466 37.0161 61.0933 33.9908C61.148 30.4094 62.5266 25.7041 67.992 21.6481C74.9706 16.4707 84.5866 16.4041 89.4546 22.9641C92.836 27.5214 91.512 32.8334 88.4613 38.0534C87.3973 39.9254 88.3159 41.2628 89.4559 42.7974C90.5239 44.2361 90.2226 46.2681 88.7839 47.3361L86.3173 49.1654C84.8786 50.2321 82.848 49.9321 81.78 48.4934L79.9506 46.0268C78.4319 43.9814 77.2826 42.2361 78.3746 39.3334C79.8666 35.4148 82.4146 33.3081 79.964 30.0054C78.3066 27.7721 75.4586 27.4334 73.364 28.9867C71.468 30.3934 70.788 32.2881 70.7306 34.0974C70.66 36.3721 69.0533 38.3041 66.8173 38.7295Z" fill="#F51F1F"/>
<path d="M80.2013 244.703L68.4839 459.343H99.7946L118.735 279.128L122.94 279.944L139.363 459.343L169.269 458.017L159.045 244.703H80.2013Z" fill="#000305"/>
<path d="M159.045 216.983V134.875C159.045 134.875 140.427 129.44 114.685 129.003C114.685 129.003 90.6706 127.741 84.6199 129.003L79.6066 216.983L73.616 252.795C73.616 252.795 107.957 258.767 116.025 258.192L121.788 249.835L126.685 258.231C126.685 258.231 148.871 257.771 163.853 252.795L159.045 216.983Z" fill="#20CC11"/>
<path d="M134.283 133.755C134.215 136.283 134.429 138.219 134.429 138.219L124.924 143.638L112.944 135.275C113.764 133.176 114.315 130.986 114.679 129.008C114.759 128.564 114.84 128.135 114.908 127.718C115.041 126.938 115.136 126.199 115.203 125.527C115.405 123.711 115.471 122.354 115.485 121.828C115.499 121.667 115.499 121.587 115.499 121.587L116.897 121.883L135.627 125.808C135.291 126.588 135.023 127.463 134.833 128.363C134.605 129.372 134.457 130.407 134.389 131.428C134.323 132.236 134.283 133.015 134.283 133.755Z" fill="#F68A81"/>
<path d="M55.2307 169.895C55.2307 169.895 73.6373 130.36 84.62 129.003C98.7346 127.26 88.2693 162.919 88.2693 162.919L70.7893 193.902L55.2307 169.895Z" fill="#20CC11"/>
<path d="M187.089 173.935C187.089 173.935 168.684 135.998 157.701 134.64C143.587 132.898 154.052 168.556 154.052 168.556L171.531 196.984L187.089 173.935Z" fill="#20CC11"/>
<path d="M71.3653 184.303C69.3413 180.62 40.872 158.394 33.9734 153.04L32.084 150.434C32.084 150.434 29.108 146.304 25.6507 145.247C23.964 144.732 16.8147 142.459 14.7013 142.364C12.588 142.27 14.7013 145.035 16.3347 145.67C17.968 146.304 21.04 147.315 21.04 147.315L8.45867 152.931C8.45867 152.931 1.28001 155.692 0.632014 157.564C-0.0159863 159.438 2.93735 158.284 5.60135 157.204C7.57868 156.403 9.70669 155.446 10.6787 155.003L10.8947 155.206C10.0213 155.55 3.78003 158.056 3.17736 159.798C2.52803 161.67 5.48136 160.518 8.14669 159.438C10.0627 158.66 12.1093 157.743 13.12 157.283L13.5253 157.662C12.148 158.214 6.57202 160.534 6.00402 162.175C5.35602 164.047 8.30936 162.895 10.9747 161.814C12.7787 161.083 14.6947 160.228 15.7573 159.747L16.0907 160.058C14.0733 160.906 9.81067 162.839 9.31733 164.263C8.66933 166.136 11.6227 164.983 14.288 163.903C15.732 163.318 17.2467 162.654 18.344 162.163C18.344 162.163 20.7533 161.408 23.5933 160.23C24.7653 162.019 49.7534 199.991 61.5707 199.991C73.6707 199.991 73.6707 188.495 71.3653 184.303Z" fill="#F68A81"/>
<path d="M234.613 158.376C233.965 156.504 226.785 153.743 226.785 153.743L214.204 148.127C214.204 148.127 217.277 147.116 218.911 146.482C220.543 145.847 222.656 143.083 220.543 143.176C218.429 143.271 211.28 145.544 209.593 146.059C206.137 147.116 203.159 151.246 203.159 151.246L201.839 153.067C196.664 159.226 172.869 187.683 171.648 191.767C170.279 196.351 172.699 207.588 184.528 205.04C194.444 202.904 207.955 171.375 212.072 161.218C214.727 162.296 216.901 162.975 216.901 162.975C217.999 163.466 219.512 164.13 220.957 164.715C223.623 165.796 226.576 166.948 225.927 165.076C225.433 163.651 221.172 161.718 219.153 160.87L219.487 160.559C220.549 161.04 222.465 161.895 224.271 162.627C226.935 163.707 229.888 164.86 229.241 162.987C228.673 161.347 223.096 159.026 221.72 158.474L222.125 158.096C223.135 158.555 225.183 159.472 227.097 160.25C229.763 161.33 232.716 162.483 232.068 160.61C231.465 158.868 225.224 156.362 224.349 156.019L224.567 155.815C225.537 156.258 227.667 157.215 229.643 158.016C232.307 159.096 235.261 160.25 234.613 158.376Z" fill="#F68A81"/>
<path d="M85.1946 135.739C85.1946 135.739 89.788 150.408 84.7533 169.148" stroke="#1E1E1E" stroke-width="1.33333" stroke-miterlimit="10" stroke-linecap="round" stroke-linejoin="round"/>
<path d="M159.045 141.5C159.045 141.5 153.851 160.186 156.448 172.452" stroke="#1E1E1E" stroke-width="1.33333" stroke-miterlimit="10" stroke-linecap="round" stroke-linejoin="round"/>
<path d="M83.468 216.702L87.112 218.719L84.7533 222.464" stroke="#1E1E1E" stroke-width="1.33333" stroke-miterlimit="10" stroke-linecap="round" stroke-linejoin="round"/>
<path d="M157.383 219.583L153.585 222.464" stroke="#1E1E1E" stroke-width="1.33333" stroke-miterlimit="10" stroke-linecap="round" stroke-linejoin="round"/>
<path d="M124.919 143.638L121.788 249.835" stroke="#1E1E1E" stroke-width="1.33333" stroke-miterlimit="10" stroke-linecap="round" stroke-linejoin="round"/>
<path d="M135.627 125.808C135.291 126.588 135.023 127.463 134.833 128.363C134.605 129.372 134.457 130.407 134.389 131.428C134.323 132.236 134.283 133.015 134.283 133.755C131.7 134.306 128.365 134.239 124.292 132.612C119.277 130.61 116.467 128.942 114.908 127.718C115.041 126.938 115.136 126.199 115.203 125.527C115.405 123.711 115.471 122.354 115.485 121.828L116.897 121.883L135.627 125.808Z" fill="#F46E66"/>
<path d="M106.995 84.3004C106.995 84.3004 104.825 104.624 105.223 111.848C105.619 119.072 116.011 127.799 124.232 130.056C131.22 131.975 143.829 124.383 146.92 119.03C150.012 113.676 154.497 87.3697 154.497 87.3697C154.497 87.3697 130.331 54.4097 106.995 84.3004Z" fill="#F68A81"/>
<path d="M107.668 97.0882C107.668 97.0882 104.08 91.2922 100.916 92.3229C97.752 93.3549 97.4146 100.445 100.201 104.876C102.988 109.305 106.259 108.303 106.259 108.303L107.668 97.0882Z" fill="#F68A81"/>
<path d="M149.868 102.263C149.868 102.263 154.916 97.6828 157.673 99.5455C160.428 101.41 158.796 108.319 154.895 111.808C150.995 115.297 148.127 113.429 148.127 113.429L149.868 102.263Z" fill="#F68A81"/>
<path d="M121.643 60.1068C111.848 62.1241 111.991 67.8868 106.661 69.1828C101.331 70.4788 99.036 73.7921 98.3106 77.2508C97.584 80.7081 98.7373 80.7081 99.7466 80.7081C100.753 80.7081 101.331 80.7081 101.331 80.7081C101.331 80.7081 101.457 84.0748 101.187 88.1988C100.916 92.3228 102.989 92.9521 102.989 92.9521C102.989 92.9521 107.523 95.9775 107.668 100.3C107.668 100.3 109.831 99.8681 110.407 97.4188C110.983 94.9694 111.271 85.4615 111.271 85.4615C111.271 85.4615 117.609 85.1735 121.788 82.4361C121.788 82.4361 123.372 83.8775 127.117 83.8775C130.863 83.8775 141.812 80.2761 144.837 82.1481C144.837 82.1481 145.989 85.7495 149.304 88.0548C149.304 88.0548 147.96 97.8508 148.127 100.3C148.295 102.749 149.568 104.187 149.568 104.187C149.568 104.187 151.896 99.4841 155.787 99.1001C155.787 99.1001 159.244 93.6735 159.819 89.0628C159.819 89.0628 162.7 88.9188 162.413 85.8935C162.125 82.8681 160.972 81.8601 160.251 78.8348C159.531 75.8095 157.081 72.6401 155.355 72.4961C155.355 72.4961 156.939 70.0468 149.159 64.7174C141.38 59.3868 131.44 58.0895 121.643 60.1068Z" fill="#000305"/>
<path d="M115.207 125.52C115.207 125.52 115.137 130.318 117.369 134.579C119.387 138.428 124.919 143.638 124.919 143.638C124.919 143.638 120.923 141.886 117.561 141.982C114.2 142.078 111.127 143.638 111.127 143.638L108.821 128.92L115.207 125.52Z" fill="#1E1E1E"/>
<path d="M134.827 128.366C134.827 128.366 132.565 139.531 124.919 143.638C124.919 143.638 129.759 142.892 132.64 143.638C135.521 144.383 137.249 146.208 137.249 146.208C137.249 146.208 141.028 134.656 141.108 131.212L134.827 128.366Z" fill="#1E1E1E"/>
<path d="M101.137 95.7855C101.137 95.7855 104.088 98.2521 105.173 103.277" stroke="#1E1E1E" stroke-width="1.33333" stroke-miterlimit="10" stroke-linecap="round" stroke-linejoin="round"/>
<path d="M102.292 102.701C102.292 102.701 102.46 100.012 103.864 99.5309" stroke="#1E1E1E" stroke-width="1.33333" stroke-miterlimit="10" stroke-linecap="round" stroke-linejoin="round"/>
<path d="M156.171 102.701C156.171 102.701 151.761 105.103 150.319 109.424" stroke="#1E1E1E" stroke-width="1.33333" stroke-miterlimit="10" stroke-linecap="round" stroke-linejoin="round"/>
<path d="M153.245 108.848C153.245 108.848 154.065 107.599 153.245 106.063" stroke="#1E1E1E" stroke-width="1.33333" stroke-miterlimit="10" stroke-linecap="round" stroke-linejoin="round"/>
<path d="M120.991 98.8922C120.817 100.253 120.051 101.276 119.279 101.177C118.508 101.079 118.023 99.8962 118.196 98.5349C118.371 97.1749 119.137 96.1509 119.909 96.2509C120.681 96.3482 121.165 97.5309 120.991 98.8922Z" fill="#000305"/>
<path d="M115.381 90.6576C115.381 90.6576 120.501 91.9989 123.249 90.3322" stroke="#000305" stroke-width="1.33333" stroke-miterlimit="10" stroke-linecap="round" stroke-linejoin="round"/>
<path d="M136.049 99.9642C136.025 101.336 136.636 102.459 137.415 102.472C138.192 102.487 138.843 101.387 138.865 100.015C138.891 98.6429 138.28 97.5202 137.503 97.5055C136.724 97.4922 136.075 98.5922 136.049 99.9642Z" fill="#000305"/>
<path d="M142.789 92.6255C142.789 92.6255 137.529 93.2135 135.051 91.1669" stroke="#000305" stroke-width="1.33333" stroke-miterlimit="10" stroke-linecap="round" stroke-linejoin="round"/>
<path d="M128.193 98.0042C128.193 98.0042 127.803 103.457 127.112 104.108C127.112 104.108 125.348 104.06 125.233 106.105C125.12 108.151 126.939 108.731 126.939 108.731" stroke="#1E1E1E" stroke-width="1.33333" stroke-miterlimit="10" stroke-linecap="round" stroke-linejoin="round"/>
<path d="M124.285 115.379C124.285 115.379 127.512 113.265 129.836 113.649C132.16 114.033 133.013 115.379 133.013 115.379" stroke="#1E1E1E" stroke-width="1.33333" stroke-miterlimit="10" stroke-linecap="round" stroke-linejoin="round"/>
<path d="M21.04 147.315L25.4106 149.57" stroke="#1E1E1E" stroke-width="1.33333" stroke-miterlimit="10" stroke-linecap="round" stroke-linejoin="round"/>
<path d="M10.092 154.371L16.5266 160.134" stroke="#1E1E1E" stroke-width="1.33333" stroke-miterlimit="10" stroke-linecap="round" stroke-linejoin="round"/>
<path d="M23.5933 160.23C23.5933 160.23 28.82 158.308 29.3 158.214" stroke="#1E1E1E" stroke-width="1.33333" stroke-miterlimit="10" stroke-linecap="round" stroke-linejoin="round"/>
<path d="M212.072 161.218L208.224 159.942" stroke="#1E1E1E" stroke-width="1.33333" stroke-miterlimit="10" stroke-linecap="round" stroke-linejoin="round"/>
<path d="M225.224 154.972L218.596 161.218" stroke="#1E1E1E" stroke-width="1.33333" stroke-miterlimit="10" stroke-linecap="round" stroke-linejoin="round"/>
<path d="M214.204 148.127C214.204 148.127 211.999 150.506 210.147 151.586" stroke="#1E1E1E" stroke-width="1.33333" stroke-miterlimit="10" stroke-linecap="round" stroke-linejoin="round"/>
<path d="M92.4946 266.067C92.4946 266.067 86.704 343.86 84.9893 352.024C83.2746 360.187 84.9893 363.26 84.9893 363.26C84.9893 363.26 84.0266 370.943 84.228 372.48C84.4266 374.017 80.5853 441.245 80.5853 441.245" stroke="#000305" stroke-width="1.33333" stroke-miterlimit="10" stroke-linecap="round" stroke-linejoin="round"/>
<path d="M144.357 266.067C144.357 266.067 150.888 358.265 151.656 362.876C152.424 367.485 151.656 370.797 151.656 370.797C151.656 370.797 151.571 374.401 151.997 377.089C152.424 379.779 156.649 441.245 156.649 441.245" stroke="#000305" stroke-width="1.33333" stroke-miterlimit="10" stroke-linecap="round" stroke-linejoin="round"/>
<path d="M118.735 279.128L109.973 270.868" stroke="#000305" stroke-width="1.33333" stroke-miterlimit="10" stroke-linecap="round" stroke-linejoin="round"/>
<path d="M122.94 279.944L129.951 275.863" stroke="#000305" stroke-width="1.33333" stroke-miterlimit="10" stroke-linecap="round" stroke-linejoin="round"/>
<path d="M92.8786 164.071L110.935 165.782C110.935 165.782 110.743 185.968 100.179 185.968C89.6133 185.968 92.8786 164.071 92.8786 164.071Z" fill="#FDD5D5"/>
<path d="M154.497 73.6482L150.319 76.0469" stroke="#000305" stroke-width="1.33333" stroke-miterlimit="10" stroke-linecap="round" stroke-linejoin="round"/>
<path d="M107.668 85.1255C107.668 85.1255 117.467 86.4709 121.788 82.4362C121.788 82.4362 125.331 85.2695 131.867 83.1815C138.403 81.0922 143.876 81.5722 144.837 82.1482C144.837 82.1482 147.045 88.0069 151.272 88.5829C155.497 89.1589 156.171 87.7189 156.171 87.7189" stroke="#000305" stroke-width="1.33333" stroke-miterlimit="10" stroke-linecap="round" stroke-linejoin="round"/>
<path d="M159.724 86.7574L158.572 88.1028" stroke="#000305" stroke-width="1.33333" stroke-miterlimit="10" stroke-linecap="round" stroke-linejoin="round"/>
<path d="M103.864 82.2441C103.864 82.2441 104.5 79.6508 105.845 78.5948" stroke="#000305" stroke-width="1.33333" stroke-miterlimit="10" stroke-linecap="round" stroke-linejoin="round"/>
<path d="M152.408 70.72C152.408 70.72 151.464 68.7987 149.447 68.0294" stroke="#000305" stroke-width="1.33333" stroke-miterlimit="10" stroke-linecap="round" stroke-linejoin="round"/>
<path d="M111.511 69.3748C111.511 69.3748 116.121 65.4374 116.409 64.7654" stroke="#000305" stroke-width="1.33333" stroke-miterlimit="10" stroke-linecap="round" stroke-linejoin="round"/>
<path d="M122.363 79.5561C122.363 79.5561 123.9 77.4428 125.821 76.7694" stroke="#000305" stroke-width="1.33333" stroke-miterlimit="10" stroke-linecap="round" stroke-linejoin="round"/>
</g>
</g>
<defs>
<filter id="filter0_d_4_2" x="0.55217" y="0.926514" width="237.154" height="290.589" filterUnits="userSpaceOnUse" color-interpolation-filters="sRGB">
<feFlood flood-opacity="0" result="BackgroundImageFix"/>
<feColorMatrix in="SourceAlpha" type="matrix" values="0 0 0 0 0 0 0 0 0 0 0 0 0 0 0 0 0 0 127 0" result="hardAlpha"/>
<feOffset dy="4"/>
<feGaussianBlur stdDeviation="2"/>
<feComposite in2="hardAlpha" operator="out"/>
<feColorMatrix type="matrix" values="0 0 0 0 0 0 0 0 0 0 0 0 0 0 0 0 0 0 0.25 0"/>
<feBlend mode="normal" in2="BackgroundImageFix" result="effect1_dropShadow_4_2"/>
<feBlend mode="normal" in="SourceGraphic" in2="effect1_dropShadow_4_2" result="shape"/>
</filter>
<clipPath id="clip0_4_2">
<rect width="236" height="282" fill="white"/>
</clipPath>
</defs>
</svg>
